<svg width="16" height="16" viewBox="0 0 16 16" fill="none" xmlns="http://www.w3.org/2000/svg">
<path d="M8.20696 0.989258C8.70522 0.989258 9.10913 1.39317 9.10913 1.89143V7.30443H14.5221C15.0204 7.30443 15.4243 7.70835 15.4243 8.2066C15.4243 8.70485 15.0204 9.10877 14.5221 9.10877H9.10913V14.5218C9.10913 15.02 8.70522 15.4239 8.20696 15.4239C7.70871 15.4239 7.3048 15.02 7.3048 14.5218V9.10877H1.89179C1.39354 9.10877 0.989624 8.70485 0.989624 8.2066C0.989624 7.70835 1.39354 7.30443 1.89179 7.30443H7.3048V1.89143C7.3048 1.39317 7.70871 0.989258 8.20696 0.989258Z" fill="black"/>
</svg>
