<svg width="12" height="13" viewBox="0 0 12 13" fill="none" xmlns="http://www.w3.org/2000/svg">
<path d="M11.2142 11.3584H0.790225C0.37901 11.3584 0.0456543 11.6918 0.0456543 12.103C0.0456543 12.5142 0.37901 12.8475 0.790225 12.8475H11.2142C11.6254 12.8475 11.9588 12.5142 11.9588 12.103C11.9588 11.6918 11.6254 11.3584 11.2142 11.3584Z" fill="white"/>
<path d="M0.0456543 10.613L0.0456543 12.1021C0.0456543 12.5133 0.37901 12.8467 0.790225 12.8467C1.20144 12.8467 1.5348 12.5133 1.5348 12.1021L1.5348 10.613C1.5348 10.2018 1.20144 9.8684 0.790225 9.8684C0.37901 9.8684 0.0456543 10.2018 0.0456543 10.613Z" fill="white"/>
<path d="M10.4697 10.613V12.1021C10.4697 12.5133 10.803 12.8467 11.2142 12.8467C11.6255 12.8467 11.9588 12.5133 11.9588 12.1021V10.613C11.9588 10.2018 11.6255 9.8684 11.2142 9.8684C10.803 9.8684 10.4697 10.2018 10.4697 10.613Z" fill="white"/>
<path d="M6.00223 9.12422C5.84786 9.12539 5.69695 9.07856 5.57038 8.9902L2.59209 6.89051C2.43157 6.77664 2.32267 6.60385 2.28918 6.40991C2.25569 6.21597 2.30035 6.01666 2.4134 5.85556C2.46983 5.77503 2.54164 5.70648 2.62471 5.65386C2.70778 5.60124 2.80044 5.56559 2.89736 5.54898C2.99427 5.53236 3.09352 5.53511 3.18937 5.55706C3.28522 5.57901 3.37577 5.61973 3.4558 5.67686L6.00223 7.45638L8.53376 5.55028C8.69174 5.4318 8.89032 5.38093 9.08581 5.40885C9.28129 5.43678 9.45768 5.54122 9.57616 5.6992C9.69465 5.85718 9.74552 6.05575 9.71759 6.25124C9.68967 6.44673 9.58523 6.62311 9.42725 6.7416L6.44897 8.97531C6.32009 9.07197 6.16333 9.12422 6.00223 9.12422Z" fill="white"/>
<path d="M6.0022 7.63516C5.80473 7.63516 5.61534 7.55671 5.47571 7.41708C5.33608 7.27744 5.25763 7.08806 5.25763 6.89059V0.934023C5.25763 0.736551 5.33608 0.547167 5.47571 0.407533C5.61534 0.267899 5.80473 0.189453 6.0022 0.189453C6.19967 0.189453 6.38906 0.267899 6.52869 0.407533C6.66832 0.547167 6.74677 0.736551 6.74677 0.934023V6.89059C6.74677 7.08806 6.66832 7.27744 6.52869 7.41708C6.38906 7.55671 6.19967 7.63516 6.0022 7.63516Z" fill="white"/>
</svg>
