<svg width="25" height="25" viewBox="0 0 25 25" fill="none" xmlns="http://www.w3.org/2000/svg">
<path d="M12.4999 2.60449C12.8945 2.60449 13.2552 2.82741 13.4316 3.18031L16.118 8.55303L22.0249 9.41221C22.4172 9.46928 22.7431 9.7441 22.8656 10.1212C22.9881 10.4982 22.886 10.9121 22.6021 11.1889L18.303 15.3805L19.2701 21.2904C19.334 21.681 19.1711 22.0741 18.8496 22.3049C18.528 22.5357 18.1035 22.5643 17.7539 22.3788L12.4999 19.591L7.24601 22.3788C6.89639 22.5643 6.47185 22.5357 6.15033 22.3049C5.82881 22.0741 5.66585 21.681 5.72977 21.2904L6.69685 15.3805L2.39776 11.1889C2.1139 10.9121 2.01176 10.4982 2.13426 10.1212C2.25677 9.7441 2.58269 9.46928 2.97501 9.41221L8.88189 8.55303L11.5683 3.18031C11.7447 2.82741 12.1054 2.60449 12.4999 2.60449ZM12.4999 5.9754L10.502 9.97138C10.3495 10.2763 10.0575 10.4873 9.7202 10.5364L5.36285 11.1701L8.53964 14.2675C8.78306 14.5049 8.89535 14.846 8.84044 15.1816L8.12496 19.554L12.0117 17.4916C12.317 17.3296 12.6829 17.3296 12.9882 17.4916L16.8749 19.554L16.1595 15.1816C16.1046 14.846 16.2168 14.5049 16.4603 14.2675L19.637 11.1701L15.2797 10.5364C14.9424 10.4873 14.6504 10.2763 14.4979 9.97138L12.4999 5.9754Z" fill="#D4D8E2"/>
</svg>
