<svg width="26" height="26" viewBox="0 0 26 26" fill="none" xmlns="http://www.w3.org/2000/svg">
<path d="M12.6084 4.83739C10.1545 2.63869 6.38058 2.71845 4.02236 5.07668C1.58158 7.51745 1.58158 11.4747 4.02236 13.9155L11.1353 21.0285C11.9489 21.842 13.268 21.842 14.0816 21.0285L21.1945 13.9155C23.6353 11.4747 23.6353 7.51745 21.1945 5.07668C18.8363 2.71845 15.0624 2.63869 12.6084 4.83739ZM11.3881 6.54982L11.8719 7.03363C12.2787 7.44043 12.9382 7.44043 13.345 7.03363L13.8288 6.54982C15.456 4.92263 18.0942 4.92263 19.7214 6.54982C21.3486 8.177 21.3486 10.8152 19.7214 12.4424L12.6084 19.5553L5.49549 12.4424C3.86831 10.8152 3.86831 8.177 5.49549 6.54982C7.12268 4.92263 9.76087 4.92263 11.3881 6.54982Z" fill="#D4D8E2"/>
</svg>
