<svg width="29" height="28" viewBox="0 0 29 28" fill="none" xmlns="http://www.w3.org/2000/svg">
<path d="M20.9799 13.2548C21.2601 13.44 21.4287 13.7534 21.4287 14.0893V22.4308C21.4287 22.7495 21.1668 23 20.8335 23H17.8096C17.2573 23 16.8096 22.5523 16.8096 22V17.6723C16.8096 17.3536 16.5477 17.1031 16.2144 17.1031H12.7857C12.4524 17.1031 12.1905 17.3536 12.1905 17.6723V22C12.1905 22.5523 11.7428 23 11.1905 23H8.16658C7.83325 23 7.57134 22.7495 7.57134 22.4308V14.1106C7.57134 13.7755 7.73914 13.4627 8.0183 13.2774L13.9483 9.34116C14.2827 9.11916 14.7175 9.11866 15.0525 9.33989L20.9799 13.2548ZM14.1667 4.10254C14.1667 4.10259 14.1667 4.10268 14.1666 4.10272L4.76192 10.3183C4.59517 10.432 4.5 10.6142 4.5 10.7963V13.8245C4.5 14.2798 5.04758 14.5531 5.42858 14.3027L7.57137 12.8911L10.0475 11.2518L13.9484 8.65854C14.2828 8.43629 14.7176 8.43551 15.0527 8.65656L18.9523 11.2289L21.4285 12.8682L23.5713 14.2798C23.976 14.5302 24.4998 14.2798 24.4998 13.8016L24.5 10.7963C24.5 10.6141 24.4048 10.432 24.2381 10.3181L14.8332 4.10244C14.6428 3.96588 14.3572 3.96585 14.1667 4.10236C14.1666 4.1024 14.1666 4.10248 14.1667 4.10254V4.10254Z" fill="white"/>
</svg>
