<svg width="25" height="25" viewBox="0 0 25 25" fill="none" xmlns="http://www.w3.org/2000/svg">
<path d="M16.1458 10.4167C17.0088 10.4167 17.7083 9.71711 17.7083 8.85417C17.7083 7.99122 17.0088 7.29167 16.1458 7.29167C15.2829 7.29167 14.5833 7.99122 14.5833 8.85417C14.5833 9.71711 15.2829 10.4167 16.1458 10.4167Z" fill="#D4D8E2"/>
<path d="M3.125 5.20833C3.125 4.05774 4.05774 3.125 5.20833 3.125H19.7917C20.9423 3.125 21.875 4.05774 21.875 5.20833V19.7917C21.875 20.9423 20.9423 21.875 19.7917 21.875H5.20833C4.05774 21.875 3.125 20.9423 3.125 19.7917V5.20833ZM19.7917 5.20833H5.20833V13.4577L8.72431 10.6449C9.10475 10.3406 9.64533 10.3406 10.0258 10.6449L14.5061 14.2292L15.9301 12.8051C16.3369 12.3983 16.9965 12.3983 17.4033 12.8051L19.7917 15.1935V5.20833ZM5.20833 19.7917H19.7917V18.1398L16.6667 15.0148L15.3199 16.3616C14.9446 16.7369 14.3471 16.77 13.9326 16.4384L9.37504 12.7923L5.20833 16.1257V19.7917Z" fill="#D4D8E2"/>
</svg>
