<svg width="166" height="166" viewBox="0 0 166 166" fill="none" xmlns="http://www.w3.org/2000/svg">
<g clip-path="url(#clip0_468_914)">
<rect x="0.608887" y="0.272461" width="164.884" height="164.884" rx="25" fill="white"/>
<rect x="0.608887" y="0.272461" width="164.884" height="164.884" fill="url(#paint0_linear_468_914)"/>
<g clip-path="url(#clip1_468_914)">
<path d="M22.6249 81.9514C22.6219 92.6662 25.415 103.128 30.7259 112.35L22.1169 143.857L54.2843 135.403C63.1814 140.258 73.15 142.802 83.28 142.802H83.3066C116.748 142.802 143.97 115.526 143.984 81.9994C143.99 65.7534 137.684 50.4768 126.227 38.9835C114.772 27.4912 99.5368 21.1588 83.3041 21.1514C49.8591 21.1514 22.6392 48.4265 22.6254 81.9514" fill="url(#paint1_linear_468_914)"/>
<path d="M83.0505 116.183C101.632 116.183 116.753 101.076 116.753 82.5006C116.753 63.9313 101.632 48.8262 83.0505 48.8262C64.4689 48.8243 49.348 63.9294 49.348 82.4992C49.348 101.072 64.4689 116.183 83.0505 116.183ZM67.8976 76.0656L67.9298 76.0334L79.7145 87.8143V64.3058H86.4527V87.8143L98.2093 76.0654V85.5807L83.0884 100.697L67.8978 85.5168L67.8976 76.0656Z" fill="white"/>
<path d="M20.4587 81.932C20.4552 93.0324 23.3484 103.869 28.8487 113.421L19.931 146.057L53.2518 137.3C62.4328 142.317 72.7697 144.963 83.288 144.967H83.3151C117.956 144.967 146.156 116.709 146.171 81.9825C146.176 65.1528 139.644 49.327 127.777 37.4219C115.909 25.5184 100.129 18.9581 83.3151 18.9512C48.6683 18.9512 20.473 47.205 20.4592 81.932H20.4587ZM40.3019 111.776L39.0578 109.796C33.8277 101.46 31.0672 91.8273 31.0712 81.936C31.0825 53.0717 54.5177 29.5884 83.3348 29.5884C97.2902 29.5943 110.405 35.0473 120.27 44.9411C130.134 54.8359 135.561 67.989 135.558 81.9785C135.545 110.843 112.11 134.329 83.3151 134.329H83.2944C73.9186 134.324 64.7234 131.8 56.7042 127.031L54.7958 125.896L35.0226 131.093L40.3019 111.775V111.776Z" fill="url(#paint2_linear_468_914)"/>
</g>
</g>
<defs>
<linearGradient id="paint0_linear_468_914" x1="165.493" y1="162.1" x2="0.608891" y2="3.34685" gradientUnits="userSpaceOnUse">
<stop stop-color="#1FAF38"/>
<stop offset="1" stop-color="#60D669"/>
</linearGradient>
<linearGradient id="paint1_linear_468_914" x1="83.0504" y1="143.857" x2="83.0504" y2="21.1514" gradientUnits="userSpaceOnUse">
<stop stop-color="#1FAF38"/>
<stop offset="1" stop-color="#60D669"/>
</linearGradient>
<linearGradient id="paint2_linear_468_914" x1="83.0508" y1="146.057" x2="83.0508" y2="18.9512" gradientUnits="userSpaceOnUse">
<stop stop-color="#F9F9F9"/>
<stop offset="1" stop-color="white"/>
</linearGradient>
<clipPath id="clip0_468_914">
<rect x="0.608887" y="0.272461" width="164.884" height="164.884" rx="25" fill="white"/>
</clipPath>
<clipPath id="clip1_468_914">
<rect width="126.24" height="127.528" fill="white" transform="translate(19.931 18.9512)"/>
</clipPath>
</defs>
</svg>
