<svg width="128" height="129" viewBox="0 0 128 129" fill="none" xmlns="http://www.w3.org/2000/svg">
<g clip-path="url(#clip0_470_1611)">
<path d="M3.62486 63.9514C3.6219 74.6662 6.41495 85.1284 11.7259 94.35L3.11694 125.857L35.2843 117.403C44.1814 122.258 54.15 124.802 64.28 124.802H64.3066C97.7477 124.802 124.97 97.5258 124.984 63.9994C124.99 47.7534 118.684 32.4768 107.227 20.9835C95.7718 9.49117 80.5368 3.15878 64.3041 3.15137C30.8591 3.15137 3.63916 30.4265 3.62535 63.9514" fill="url(#paint0_linear_470_1611)"/>
<path d="M64.0505 98.1828C82.632 98.1828 97.7529 83.0757 97.7529 64.5006C97.7529 45.9313 82.632 30.8262 64.0505 30.8262C45.4689 30.8243 30.348 45.9294 30.348 64.4992C30.348 83.0723 45.4689 98.1828 64.0505 98.1828ZM48.8976 58.0656L48.9298 58.0334L60.7145 69.8143V46.3058H67.4527V69.8143L79.2093 58.0654V67.5807L64.0884 82.6974L48.8978 67.5168L48.8976 58.0656Z" fill="white"/>
<path d="M1.45867 63.932C1.45522 75.0324 4.34837 85.8688 9.84867 95.4205L0.93103 128.057L34.2519 119.3C43.4328 124.317 53.7697 126.963 64.288 126.967H64.3151C98.956 126.967 127.156 98.709 127.171 63.9825C127.176 47.1528 120.644 31.327 108.777 19.4219C96.9091 7.51835 81.1291 0.958092 64.3151 0.951172C29.6683 0.951172 1.47297 29.205 1.45917 63.932H1.45867ZM21.3019 93.7755L20.0578 91.7959C14.8277 83.4601 12.0672 73.8273 12.0712 63.936C12.0825 35.0717 35.5177 11.5884 64.3348 11.5884C78.2902 11.5943 91.4053 17.0473 101.27 26.9411C111.134 36.8359 116.561 49.989 116.558 63.9785C116.545 92.8428 93.1095 116.329 64.3151 116.329H64.2944C54.9186 116.324 45.7234 113.8 37.7042 109.031L35.7958 107.896L16.0226 113.093L21.3019 93.775V93.7755Z" fill="url(#paint1_linear_470_1611)"/>
</g>
<defs>
<linearGradient id="paint0_linear_470_1611" x1="64.0504" y1="125.857" x2="64.0504" y2="3.15137" gradientUnits="userSpaceOnUse">
<stop stop-color="#1FAF38"/>
<stop offset="1" stop-color="#60D669"/>
</linearGradient>
<linearGradient id="paint1_linear_470_1611" x1="64.0508" y1="128.057" x2="64.0508" y2="0.951172" gradientUnits="userSpaceOnUse">
<stop stop-color="#F9F9F9"/>
<stop offset="1" stop-color="white"/>
</linearGradient>
<clipPath id="clip0_470_1611">
<rect width="126.24" height="127.528" fill="white" transform="translate(0.93103 0.951172)"/>
</clipPath>
</defs>
</svg>
