<svg width="28" height="28" viewBox="0 0 28 28" fill="none" xmlns="http://www.w3.org/2000/svg">
<g clip-path="url(#clip0_470_1621)">
<path d="M25.3819 7.64816L25.3836 7.64809C25.5347 7.64389 25.6815 7.69594 25.7958 7.79341C26.4468 7.96565 26.9966 8.4865 26.9957 9.22931M25.3819 7.64816L26.8457 9.22912M25.3819 7.64816C25.159 7.657 24.9393 7.71479 24.7411 7.81687L24.741 7.81689L19.3852 10.5761V9.12441C19.3852 7.94836 18.4433 6.96523 17.27 6.96523L2.21784 6.96537C1.04425 6.96537 0.106104 7.94884 0.106104 9.12455V18.1176C0.106104 19.2933 1.04425 20.2768 2.21784 20.2768H17.2698C18.443 20.2768 19.385 19.2937 19.385 18.1176V16.835L24.7406 19.594C25.766 20.1242 26.998 19.3251 26.9955 18.1815M25.3819 7.64816L26.8455 18.1819M26.9957 9.22931L26.8457 9.22912M26.9957 9.22931V9.22913L26.8457 9.22912M26.9957 9.22931L26.9955 18.1815M26.8457 9.22912L26.8455 18.1819M26.9955 18.1815L26.8455 18.1819M26.9955 18.1815V18.1819L26.8455 18.1819M19.3856 11.9452L25.2977 8.89859C25.3359 8.87892 25.379 8.86744 25.4227 8.86461H25.425H25.4258V8.86474L25.432 8.86448C25.6155 8.85684 25.7799 9.0021 25.7796 9.22909V9.22929V18.182V18.1823C25.7799 18.3431 25.7112 18.4526 25.6261 18.5082C25.5415 18.5633 25.4249 18.5762 25.3014 18.5123L25.2327 18.6452V18.6384L25.2977 18.5122L19.3856 15.4656V11.9452ZM8.51984 10.2635C8.35578 10.2713 8.19846 10.3204 8.05902 10.4018L8.05875 10.4019C7.73401 10.5924 7.5424 10.9373 7.54073 11.3047V11.3054V11.3056V11.3091V15.9467C7.54073 16.3321 7.74912 16.6777 8.05502 16.8573C8.36186 17.0373 8.78676 17.0481 9.11971 16.8301L9.11995 16.8299L12.648 14.5095L12.6608 14.5011L12.6657 14.4962C13.2659 14.0818 13.2658 13.1741 12.6658 12.7595L12.6608 12.7546L12.648 12.7462L9.12014 10.4267L9.08263 10.402H9.07665C8.9299 10.3157 8.76364 10.2675 8.59114 10.2633L8.59056 10.2633C8.58857 10.2633 8.58646 10.2632 8.58424 10.2632L8.51984 10.2635ZM8.75451 15.6139V11.6446L11.7716 13.6296L8.75451 15.6139ZM2.21784 8.1818H17.2698C17.7627 8.1818 18.1686 8.5833 18.1686 9.12455V18.1176C18.1686 18.6588 17.7625 19.0604 17.2698 19.0604H2.21784C1.7256 19.0604 1.32253 18.6595 1.32253 18.1176V9.12455C1.32253 8.58264 1.72559 8.1818 2.21784 8.1818Z" fill="#D4D8E2" stroke="#D4D8E2" stroke-width="0.3"/>
</g>
<defs>
<clipPath id="clip0_470_1621">
<rect width="27" height="27" fill="white" transform="translate(0.0507812 0.121094)"/>
</clipPath>
</defs>
</svg>
