<svg width="16" height="17" viewBox="0 0 16 17" fill="none" xmlns="http://www.w3.org/2000/svg">
<g clip-path="url(#clip0_470_2165)">
<path d="M15.3827 11.8521V15.2318C15.3827 15.2991 15.3731 15.3616 15.3588 15.4193C15.2916 15.751 14.9989 16.0011 14.6535 16.0011L0.867635 16.0009C0.498123 16.0009 0.191128 15.7172 0.152706 15.3567C0.143066 15.3133 0.143066 15.275 0.143066 15.2268V11.8471C0.143066 11.448 0.469341 11.126 0.862828 11.126C1.0595 11.126 1.24187 11.2077 1.37146 11.3375C1.50105 11.4674 1.5826 11.6501 1.5826 11.8471V14.5537H13.9481V11.8471C13.9481 11.4481 14.2744 11.126 14.6679 11.126C14.8645 11.126 15.0469 11.2077 15.1765 11.3375C15.3013 11.4723 15.3828 11.655 15.3828 11.8521L15.3827 11.8521Z" fill="black"/>
<path d="M11.9135 8.46803L8.37703 12.0111C8.37221 12.0208 8.36257 12.0256 8.35788 12.0303C8.22829 12.1602 8.06039 12.2418 7.89251 12.2659C7.87805 12.2659 7.86372 12.2707 7.84926 12.2707C7.82048 12.2755 7.79169 12.2755 7.76291 12.2755L7.68137 12.2707C7.66691 12.2707 7.65259 12.2659 7.63813 12.2659C7.46542 12.2418 7.30221 12.1602 7.17275 12.0303C7.16793 12.0255 7.15829 12.0158 7.15361 12.0111L3.61718 8.46803C3.45397 8.30451 3.37244 8.08827 3.37244 7.87193C3.37244 7.65557 3.45397 7.43919 3.61718 7.27584C3.94345 6.94895 4.47606 6.94895 4.80715 7.27584L6.93285 9.40555L6.93271 1.60303C6.93271 1.14147 7.31175 0.761719 7.77243 0.761719C8.00272 0.761719 8.21385 0.857896 8.3674 1.00692C8.52097 1.16078 8.61214 1.36748 8.61214 1.60301V9.40554L10.7378 7.27583C11.0641 6.94894 11.5967 6.94894 11.9278 7.27583C12.2398 7.60755 12.2398 8.14114 11.9135 8.46805L11.9135 8.46803Z" fill="black"/>
</g>
<defs>
<clipPath id="clip0_470_2165">
<rect width="15.2397" height="15.2397" fill="white" transform="translate(0.143066 0.761719)"/>
</clipPath>
</defs>
</svg>
