<svg width="16" height="16" viewBox="0 0 16 16" fill="none" xmlns="http://www.w3.org/2000/svg">
<g clip-path="url(#clip0_470_2175)">
<path d="M12.335 10.9667C11.7562 10.9667 11.234 11.1925 10.8381 11.5561L5.4085 8.37652C5.45056 8.20391 5.47708 8.02394 5.47708 7.84031C5.47708 7.65668 5.45056 7.47764 5.4085 7.30502L10.7805 4.15662C11.2011 4.55454 11.7571 4.77622 12.335 4.77639C13.5959 4.77639 14.6209 3.74712 14.6209 2.48097C14.6209 1.21481 13.5959 0.185547 12.335 0.185547C11.074 0.185547 10.049 1.21481 10.049 2.48097C10.049 2.6646 10.0755 2.84456 10.1176 3.01626L4.74557 6.16466C4.32473 5.76713 3.76889 5.54552 3.19111 5.54489C1.93018 5.54489 0.905151 6.57416 0.905151 7.84031C0.905151 9.10646 1.93018 10.1357 3.19111 10.1357C3.76898 10.1356 4.32498 9.91389 4.74557 9.51597L10.1752 12.6956C10.1352 12.8597 10.1146 13.028 10.1139 13.1969C10.1141 13.6377 10.2444 14.0686 10.4885 14.4351C10.7325 14.8016 11.0792 15.0872 11.4849 15.2558C11.8905 15.4244 12.3368 15.4685 12.7674 15.3824C13.198 15.2964 13.5935 15.0841 13.9039 14.7723C14.2143 14.4606 14.4258 14.0635 14.5115 13.6311C14.5972 13.1988 14.5533 12.7506 14.3854 12.3433C14.2174 11.936 13.933 11.5878 13.5681 11.3428C13.2031 11.0977 12.774 10.9669 12.335 10.9667Z" fill="black"/>
</g>
<defs>
<clipPath id="clip0_470_2175">
<rect width="15.2397" height="15.2397" fill="white" transform="translate(0.143066 0.185547)"/>
</clipPath>
</defs>
</svg>
