<svg width="26" height="26" viewBox="0 0 26 26" fill="none" xmlns="http://www.w3.org/2000/svg">
<path d="M18.3419 15.5237C17.8009 15.5264 17.2674 15.6506 16.7808 15.887C16.2942 16.1234 15.8669 16.4661 15.5304 16.8897L10.247 13.5867C10.4395 12.9652 10.4395 12.3001 10.247 11.6786L15.5304 8.37556C16.0666 9.03958 16.8206 9.49236 17.6587 9.6537C18.4968 9.81505 19.365 9.67454 20.1095 9.25706C20.8539 8.83959 21.4266 8.1721 21.726 7.37283C22.0254 6.57357 22.0323 5.69412 21.7454 4.89027C21.4585 4.08643 20.8963 3.41007 20.1585 2.98102C19.4207 2.55196 18.5548 2.39791 17.7142 2.54613C16.8737 2.69436 16.1128 3.13531 15.5662 3.79087C15.0196 4.44642 14.7227 5.27427 14.7281 6.12777C14.7315 6.45097 14.7802 6.7721 14.8727 7.08181L9.58926 10.3848C9.12282 9.79766 8.48526 9.37012 7.76496 9.16149C7.04467 8.95286 6.27731 8.97348 5.56925 9.22048C4.8612 9.46749 4.24752 9.92864 3.81328 10.54C3.37904 11.1514 3.14575 11.8827 3.14575 12.6326C3.14575 13.3825 3.37904 14.1139 3.81328 14.7253C4.24752 15.3366 4.8612 15.7978 5.56925 16.0448C6.27731 16.2918 7.04467 16.3124 7.76496 16.1038C8.48526 15.8952 9.12282 15.4676 9.58926 14.8804L14.8727 18.1835C14.7802 18.4932 14.7315 18.8143 14.7281 19.1375C14.7281 19.8523 14.9401 20.551 15.3371 21.1453C15.7342 21.7395 16.2986 22.2027 16.959 22.4763C17.6193 22.7498 18.3459 22.8213 19.047 22.6819C19.748 22.5425 20.3919 22.1983 20.8973 21.6929C21.4027 21.1875 21.7469 20.5436 21.8863 19.8425C22.0258 19.1415 21.9542 18.4149 21.6807 17.7546C21.4071 17.0942 20.9439 16.5298 20.3497 16.1327C19.7554 15.7356 19.0567 15.5237 18.3419 15.5237ZM18.3419 3.95947C18.7708 3.95947 19.19 4.08664 19.5466 4.3249C19.9031 4.56315 20.1811 4.90179 20.3452 5.298C20.5093 5.6942 20.5522 6.13017 20.4686 6.55078C20.3849 6.97139 20.1784 7.35774 19.8751 7.66098C19.5719 7.96422 19.1855 8.17073 18.7649 8.2544C18.3443 8.33806 17.9084 8.29512 17.5122 8.13101C17.116 7.96689 16.7773 7.68898 16.5391 7.3324C16.3008 6.97583 16.1736 6.55661 16.1736 6.12777C16.1736 5.5527 16.4021 5.00119 16.8087 4.59455C17.2153 4.18792 17.7669 3.95947 18.3419 3.95947ZM6.7777 14.8009C6.34886 14.8009 5.92964 14.6738 5.57307 14.4355C5.21649 14.1973 4.93858 13.8586 4.77446 13.4624C4.61035 13.0662 4.56741 12.6302 4.65107 12.2096C4.73474 11.789 4.94125 11.4027 5.24449 11.0994C5.54773 10.7962 5.93408 10.5897 6.35469 10.506C6.7753 10.4223 7.21127 10.4653 7.60747 10.6294C8.00368 10.7935 8.34232 11.0714 8.58057 11.428C8.81883 11.7846 8.946 12.2038 8.946 12.6326C8.946 13.2077 8.71755 13.7592 8.31092 14.1659C7.90428 14.5725 7.35277 14.8009 6.7777 14.8009ZM18.3419 21.3058C17.9131 21.3058 17.4939 21.1786 17.1373 20.9404C16.7807 20.7021 16.5028 20.3635 16.3387 19.9673C16.1746 19.5711 16.1316 19.1351 16.2153 18.7145C16.299 18.2939 16.5055 17.9075 16.8087 17.6043C17.112 17.3011 17.4983 17.0946 17.9189 17.0109C18.3395 16.9272 18.7755 16.9702 19.1717 17.1343C19.5679 17.2984 19.9065 17.5763 20.1448 17.9329C20.3831 18.2895 20.5102 18.7087 20.5102 19.1375C20.5102 19.7126 20.2818 20.2641 19.8751 20.6707C19.4685 21.0774 18.917 21.3058 18.3419 21.3058Z" fill="#D4D8E2"/>
</svg>
