<svg width="293" height="33" viewBox="0 0 293 33" fill="none" xmlns="http://www.w3.org/2000/svg">
<path d="M6.59206 24.8595C5.99806 24.8375 5.42606 24.6835 4.87606 24.3975C4.34806 24.1115 3.90806 23.6165 3.55606 22.9125C3.20406 22.2085 3.02806 21.2405 3.02806 20.0085C3.02806 19.8545 3.02806 19.7005 3.02806 19.5465C3.02806 19.3705 3.03906 19.2055 3.06106 19.0515C3.14906 17.9515 3.41306 16.7305 3.85306 15.3885C4.31506 14.0245 4.90906 12.6385 5.63506 11.2305C6.36106 9.82254 7.18606 8.49154 8.11006 7.23754C9.03406 5.96154 10.0021 4.87254 11.0141 3.97054C11.2561 3.75054 11.4981 3.57454 11.7401 3.44254C11.9821 3.28854 12.2351 3.16754 12.4991 3.07954C11.6631 3.23354 10.7831 3.36554 9.85906 3.47554C8.95706 3.58554 8.08806 3.68454 7.25206 3.77254C6.43806 3.86054 5.74506 3.97054 5.17306 4.10254C4.00706 4.36654 3.11606 4.87254 2.50006 5.62054C1.90606 6.36854 1.62006 7.27054 1.64206 8.32654C1.29006 7.95254 1.02606 7.56754 0.850063 7.17154C0.696063 6.77554 0.619063 6.40154 0.619063 6.04954C0.619063 5.60954 0.707063 5.19154 0.883063 4.79554C1.08106 4.37754 1.31206 4.02554 1.57606 3.73954C2.12606 3.10154 2.81906 2.63954 3.65506 2.35354C4.51306 2.06754 5.40406 1.89154 6.32806 1.82554C7.27406 1.73754 8.16506 1.69354 9.00106 1.69354H15.7661C15.8981 1.69354 15.8981 1.78154 15.7661 1.95754C15.6561 2.13354 15.4911 2.33154 15.2711 2.55154C15.0511 2.77154 14.8421 2.94754 14.6441 3.07954C14.0501 3.43154 13.3681 4.08054 12.5981 5.02654C11.8281 5.95054 11.0471 7.08354 10.2551 8.42554C9.48506 9.74554 8.78106 11.2085 8.14306 12.8145C7.92306 13.3425 7.68106 14.0025 7.41706 14.7945C7.17506 15.5865 6.95506 16.4225 6.75706 17.3025C6.58106 18.1605 6.49306 18.9745 6.49306 19.7445C6.49306 20.5585 6.64706 21.2515 6.95506 21.8235C7.26306 22.3735 7.80206 22.6485 8.57206 22.6485C9.16606 22.6485 9.87006 22.2965 10.6841 21.5925C11.4981 20.8885 12.3561 19.9755 13.2581 18.8535C14.1601 17.7095 15.0401 16.5105 15.8981 15.2565C16.4921 14.3545 17.0091 13.4085 17.4491 12.4185C17.8891 11.4285 18.3071 10.4495 18.7031 9.48154C19.0991 8.51354 19.5171 7.61154 19.9571 6.77554C20.2211 6.26954 20.6061 5.76354 21.1121 5.25754C21.6181 4.72954 22.1791 4.30054 22.7951 3.97054C23.4331 3.61854 24.0821 3.44254 24.7421 3.44254C24.8301 3.44254 24.9071 3.44254 24.9731 3.44254C25.0611 3.44254 25.1491 3.45354 25.2371 3.47554C25.3911 3.49754 25.4681 3.53054 25.4681 3.57454C25.4901 3.61854 25.5451 3.68454 25.6331 3.77254C24.9071 4.76254 24.1371 6.07154 23.3231 7.69954C22.5311 9.32754 21.8931 11.1535 21.4091 13.1775C21.1891 14.0795 21.0241 14.9375 20.9141 15.7515C20.8261 16.5435 20.7821 17.2805 20.7821 17.9625C20.7821 19.4145 21.0241 20.5585 21.5081 21.3945C21.9921 22.2305 22.6961 22.6485 23.6201 22.6485C24.5001 22.6485 25.3361 22.3405 26.1281 21.7245C26.9421 21.0865 27.6901 20.2505 28.3721 19.2165C29.0761 18.1825 29.7141 17.0605 30.2861 15.8505C30.8581 14.6405 31.3531 13.4635 31.7711 12.3195C31.9911 11.7475 32.2331 11.0435 32.4971 10.2075C32.7611 9.37154 32.9921 8.50254 33.1901 7.60054C33.3881 6.67654 33.4871 5.82954 33.4871 5.05954C33.4871 4.31154 33.3551 3.69554 33.0911 3.21154C32.8271 2.70554 32.3651 2.45254 31.7051 2.45254C31.3531 2.45254 30.9571 2.52954 30.5171 2.68354C30.5831 2.28754 30.8691 1.96854 31.3751 1.72654C31.8811 1.46254 32.4531 1.33054 33.0911 1.33054C33.6411 1.33054 34.1801 1.44054 34.7081 1.66054C35.2361 1.88054 35.6871 2.23254 36.0611 2.71654C36.4351 3.20054 36.6441 3.86054 36.6881 4.69654C36.7541 5.84054 36.6111 7.09454 36.2591 8.45854C35.9291 9.82254 35.4341 11.2085 34.7741 12.6165C34.1361 14.0245 33.3771 15.3885 32.4971 16.7085C31.6391 18.0285 30.7151 19.2275 29.7251 20.3055C29.1311 20.9435 28.4051 21.5925 27.5471 22.2525C26.7111 22.9125 25.7981 23.4625 24.8081 23.9025C23.8181 24.3205 22.7951 24.5295 21.7391 24.5295C21.5851 24.5295 21.4311 24.5295 21.2771 24.5295C21.1231 24.5075 20.9581 24.4855 20.7821 24.4635C19.6381 24.2875 18.8241 23.6385 18.3401 22.5165C17.8561 21.3725 17.6141 19.9975 17.6141 18.3915C17.6141 17.5775 17.6691 16.7305 17.7791 15.8505C17.8891 14.9705 18.0321 14.0795 18.2081 13.1775C17.5481 14.4755 16.7891 15.8615 15.9311 17.3355C15.0731 18.7875 14.1271 20.1075 13.0931 21.2955C12.2351 22.2855 11.4101 23.0335 10.6181 23.5395C9.84806 24.0455 9.12206 24.3975 8.44006 24.5955C7.75806 24.7715 7.14206 24.8595 6.59206 24.8595ZM43.2551 24.9255C42.5071 24.9255 41.9901 24.7055 41.7041 24.2655C41.4401 23.8035 41.3081 23.2755 41.3081 22.6815C41.3081 22.0435 41.4071 21.3065 41.6051 20.4705C41.8251 19.6125 42.0891 18.7325 42.3971 17.8305C42.7271 16.9065 43.0571 16.0485 43.3871 15.2565C43.4971 14.9925 43.5961 14.7065 43.6841 14.3985C43.7941 14.0905 43.8491 13.8155 43.8491 13.5735C43.8491 13.1335 43.6511 12.9135 43.2551 12.9135C43.1011 12.9135 42.9251 12.9465 42.7271 13.0125C42.5291 13.0565 42.2981 13.1555 42.0341 13.3095C41.5721 13.5295 41.1321 13.8375 40.7141 14.2335C40.2961 14.6075 40.0101 14.8935 39.8561 15.0915C39.5701 15.4435 39.2951 15.8395 39.0311 16.2795C38.7671 16.6975 38.5361 17.1265 38.3381 17.5665C37.8981 18.5125 37.5461 19.4145 37.2821 20.2725C37.0401 21.1085 36.8091 21.8235 36.5891 22.4175C36.4571 22.7915 36.3251 23.1765 36.1931 23.5725C36.0611 23.9685 35.9401 24.3535 35.8301 24.7275H32.6291C32.6291 24.7275 32.7061 24.4525 32.8601 23.9025C33.0141 23.3525 33.2011 22.8025 33.4211 22.2525C34.4331 19.6345 35.3901 16.9615 36.2921 14.2335C37.1941 11.5055 38.2831 8.88754 39.5591 6.37954C40.1311 5.25754 40.7471 4.22354 41.4071 3.27754C42.0891 2.33154 42.8041 1.58354 43.5521 1.03354C44.3221 0.461538 45.1251 0.175538 45.9611 0.175538C46.6211 0.175538 47.0721 0.329538 47.3141 0.637538C47.5781 0.923539 47.7101 1.28654 47.7101 1.72654C47.7101 2.21054 47.6111 2.71654 47.4131 3.24454C47.2151 3.77254 47.0171 4.22354 46.8191 4.59754C46.4231 5.38954 45.9061 6.28054 45.2681 7.27054C44.6301 8.26054 43.9591 9.18454 43.2551 10.0425C43.1011 10.2405 42.8371 10.5595 42.4631 10.9995C42.0891 11.4175 41.7041 11.8465 41.3081 12.2865C40.9341 12.7265 40.6371 13.0675 40.4171 13.3095C41.1431 12.7815 41.7701 12.3745 42.2981 12.0885C42.8261 11.8025 43.2771 11.6045 43.6511 11.4945C44.2891 11.3185 44.8171 11.2305 45.2351 11.2305C46.4891 11.2305 47.1161 11.7805 47.1161 12.8805C47.1161 13.3425 46.9841 13.8925 46.7201 14.5305C46.5881 14.8825 46.4011 15.3555 46.1591 15.9495C45.9171 16.5435 45.6641 17.1815 45.4001 17.8635C45.1581 18.5235 44.9491 19.1615 44.7731 19.7775C44.6191 20.3935 44.5421 20.8995 44.5421 21.2955C44.5421 21.5375 44.5751 21.7575 44.6411 21.9555C44.7291 22.1315 44.8831 22.2195 45.1031 22.2195C45.2571 22.2195 45.4771 22.1425 45.7631 21.9885C46.3791 21.6365 46.9511 21.1415 47.4791 20.5035C48.0291 19.8655 48.5131 19.1835 48.9311 18.4575C49.3711 17.7315 49.7451 17.0715 50.0531 16.4775C50.1191 16.3235 50.1961 16.2465 50.2841 16.2465C50.3941 16.2465 50.4491 16.4335 50.4491 16.8075C50.4491 16.9835 50.4271 17.1925 50.3831 17.4345C50.3391 17.6545 50.2511 17.8745 50.1191 18.0945C49.8111 18.6225 49.4041 19.2715 48.8981 20.0415C48.4141 20.8115 47.8641 21.5705 47.2481 22.3185C46.6321 23.0445 45.9831 23.6605 45.3011 24.1665C44.6191 24.6725 43.9371 24.9255 43.2551 24.9255ZM39.4601 13.0785C40.5601 11.7805 41.6711 10.3945 42.7931 8.92054C43.9371 7.42454 44.8831 5.90654 45.6311 4.36654C45.6751 4.25654 45.7741 4.03654 45.9281 3.70654C46.0821 3.37654 46.2251 3.01354 46.3571 2.61754C46.4891 2.19954 46.5551 1.84754 46.5551 1.56154C46.5551 1.18754 46.4121 1.00054 46.1261 1.00054C45.8401 1.00054 45.4991 1.19854 45.1031 1.59454C44.7291 1.99054 44.3441 2.51854 43.9481 3.17854C43.4421 4.01454 42.9251 4.98254 42.3971 6.08254C41.8691 7.16054 41.3521 8.30454 40.8461 9.51454C40.3621 10.7245 39.9001 11.9125 39.4601 13.0785ZM58.9458 24.9255C58.2638 24.9255 57.7908 24.6615 57.5268 24.1335C57.2848 23.6055 57.1638 22.9565 57.1638 22.1865C57.1638 21.4825 57.2298 20.7895 57.3618 20.1075C57.4278 19.7995 57.4938 19.4915 57.5598 19.1835C57.6478 18.8535 57.7468 18.5125 57.8568 18.1605C57.4828 18.8425 57.0868 19.5025 56.6688 20.1405C56.2728 20.7785 55.8658 21.3395 55.4478 21.8235C54.7438 22.6815 53.9958 23.3965 53.2038 23.9685C52.4338 24.5405 51.6638 24.8265 50.8938 24.8265C50.2778 24.8265 49.7498 24.6065 49.3098 24.1665C48.8918 23.7045 48.6828 22.9125 48.6828 21.7905C48.6828 20.6465 48.8808 19.4695 49.2768 18.2595C49.6728 17.0495 50.2228 15.9275 50.9268 14.8935C51.6528 13.8375 52.4998 12.9905 53.4678 12.3525C54.4578 11.7145 55.5358 11.3955 56.7018 11.3955C57.0758 11.3955 57.4828 11.4505 57.9228 11.5605C58.3628 11.6705 58.7698 11.8795 59.1438 12.1875C59.5178 12.4735 59.7708 12.8805 59.9028 13.4085C59.9248 13.3645 59.9468 13.3315 59.9688 13.3095C60.0128 13.2875 60.0458 13.2655 60.0678 13.2435C60.3758 12.7595 60.7278 12.3525 61.1238 12.0225C61.5198 11.6925 61.9598 11.5275 62.4438 11.5275C62.6858 11.5275 63.0268 11.5385 63.4668 11.5605C63.9068 11.5825 64.2258 11.5825 64.4238 11.5605C64.3138 11.6485 64.1598 11.8245 63.9618 12.0885C63.7858 12.3525 63.6208 12.6275 63.4668 12.9135C63.3128 13.1775 63.1918 13.3865 63.1038 13.5405C62.5098 14.6845 61.9708 15.8175 61.4868 16.9395C61.0028 18.0615 60.6288 19.1395 60.3648 20.1735C60.2988 20.3935 60.2548 20.6025 60.2328 20.8005C60.2108 20.9765 60.1998 21.1525 60.1998 21.3285C60.1998 21.9005 60.3868 22.1865 60.7608 22.1865C61.1128 22.1865 61.5528 21.9665 62.0808 21.5265C62.8508 20.9105 63.5218 20.1405 64.0938 19.2165C64.6878 18.2925 65.2048 17.4015 65.6448 16.5435C65.7328 16.3895 65.8098 16.3125 65.8758 16.3125C66.0078 16.3125 66.0738 16.4995 66.0738 16.8735C66.0738 17.0495 66.0408 17.2475 65.9748 17.4675C65.9308 17.6875 65.8538 17.8965 65.7438 18.0945C65.4358 18.6225 65.0288 19.2715 64.5228 20.0415C64.0388 20.8115 63.4888 21.5705 62.8728 22.3185C62.2568 23.0445 61.6078 23.6605 60.9258 24.1665C60.2658 24.6725 59.6058 24.9255 58.9458 24.9255ZM52.3788 22.0545C52.4448 22.0765 52.5438 22.0875 52.6758 22.0875C53.0938 22.0875 53.5448 21.9115 54.0288 21.5595C54.5128 21.2075 54.9968 20.7565 55.4808 20.2065C55.9648 19.6345 56.3938 19.0625 56.7678 18.4905C57.7358 16.9505 58.4508 15.7955 58.9128 15.0255C59.3748 14.2555 59.6388 13.8155 59.7048 13.7055C59.5948 13.3315 59.3968 13.0565 59.1108 12.8805C58.8468 12.7045 58.5278 12.6165 58.1538 12.6165C57.6698 12.6165 57.1528 12.7485 56.6028 13.0125C56.0748 13.2765 55.6238 13.5955 55.2498 13.9695C54.6778 14.5415 54.1278 15.2785 53.5998 16.1805C53.0938 17.0825 52.6758 17.9735 52.3458 18.8535C52.0378 19.7335 51.8838 20.4705 51.8838 21.0645C51.8838 21.6145 52.0488 21.9445 52.3788 22.0545ZM67.1514 24.9255C66.5134 24.9255 66.0294 24.6725 65.6994 24.1665C65.5454 23.9245 65.4354 23.6385 65.3694 23.3085C65.3034 22.9785 65.2704 22.6375 65.2704 22.2855C65.2704 21.9335 65.2924 21.5815 65.3364 21.2295C65.3804 20.8555 65.4354 20.4925 65.5014 20.1405C65.6114 19.5685 65.7324 19.0515 65.8644 18.5895C66.0184 18.1055 66.1724 17.6435 66.3264 17.2035V17.1705C66.1504 17.5005 65.9304 17.8635 65.6664 18.2595C65.4024 18.6335 65.2154 18.9085 65.1054 19.0845C64.9514 19.3265 64.8304 19.4475 64.7424 19.4475C64.6544 19.4475 64.6104 19.3485 64.6104 19.1505C64.6104 18.7105 64.7424 18.2265 65.0064 17.6985C65.1824 17.3465 65.4244 16.8955 65.7324 16.3455C66.0404 15.7735 66.3594 15.1575 66.6894 14.4975C67.0194 13.8375 67.3054 13.1995 67.5474 12.5835H65.3364C65.2264 12.5835 65.2044 12.4955 65.2704 12.3195C65.3364 12.1435 65.4354 11.9785 65.5674 11.8245C65.6994 11.6485 65.7984 11.5605 65.8644 11.5605H68.3724C68.6144 10.9885 68.8894 10.3725 69.1974 9.71254C69.5274 9.05254 69.8904 8.43654 70.2864 7.86454C70.7044 7.27054 71.1554 6.78654 71.6394 6.41254C72.1234 6.03854 72.6404 5.85154 73.1904 5.85154C73.4324 5.85154 73.7294 5.85154 74.0814 5.85154C74.4554 5.85154 74.6864 5.84054 74.7744 5.81854C74.3124 6.12654 73.7734 6.74254 73.1574 7.66654C72.5414 8.56854 71.8704 9.86654 71.1444 11.5605H74.4774C74.5434 11.5605 74.5214 11.6485 74.4114 11.8245C74.3014 11.9785 74.1584 12.1435 73.9824 12.3195C73.8284 12.4955 73.6744 12.5835 73.5204 12.5835H70.6824C70.3964 13.3095 70.0774 14.1015 69.7254 14.9595C69.3954 15.8175 69.0874 16.6645 68.8014 17.5005C68.5374 18.3145 68.3394 19.0625 68.2074 19.7445C68.1194 20.1625 68.0754 20.5475 68.0754 20.8995C68.0754 21.7355 68.3394 22.1535 68.8674 22.1535C69.2194 22.1535 69.6374 21.9775 70.1214 21.6255C70.6054 21.2735 71.0894 20.7895 71.5734 20.1735C72.0134 19.6015 72.4314 18.9855 72.8274 18.3255C73.2454 17.6655 73.5974 17.0605 73.8834 16.5105C73.9714 16.3565 74.0484 16.2795 74.1144 16.2795C74.2464 16.2795 74.3124 16.4555 74.3124 16.8075C74.3124 16.9835 74.2794 17.1925 74.2134 17.4345C74.1694 17.6545 74.0814 17.8745 73.9494 18.0945C73.6414 18.6225 73.2784 19.2055 72.8604 19.8435C72.4424 20.4595 72.0134 21.0755 71.5734 21.6915C71.2654 22.0875 70.8584 22.5385 70.3524 23.0445C69.8684 23.5505 69.3404 23.9905 68.7684 24.3645C68.2184 24.7385 67.6794 24.9255 67.1514 24.9255ZM76.7552 25.3875C76.0072 25.3875 75.3032 25.2885 74.6432 25.0905C73.9832 24.8925 73.4442 24.5845 73.0262 24.1665C72.6082 23.7485 72.3992 23.2205 72.3992 22.5825C72.3992 22.0985 72.5422 21.6255 72.8282 21.1635C73.1362 20.7015 73.5652 20.4705 74.1152 20.4705C74.3572 20.4705 74.5772 20.5255 74.7752 20.6355C74.9732 20.7455 75.1052 20.8885 75.1712 21.0645C75.1492 21.0865 75.0942 21.1635 75.0062 21.2955C74.9182 21.4055 74.8632 21.4825 74.8412 21.5265C74.6432 21.9225 74.5442 22.2855 74.5442 22.6155C74.5442 23.0775 74.7092 23.4515 75.0392 23.7375C75.3912 24.0235 75.8422 24.1665 76.3922 24.1665C77.1182 24.1445 77.7452 23.8915 78.2732 23.4075C78.8232 22.9015 79.0982 22.3075 79.0982 21.6255C79.0982 21.2295 79.0102 20.8555 78.8342 20.5035C78.5482 19.9095 78.1632 19.4035 77.6792 18.9855C77.2172 18.5455 76.7662 18.1055 76.3262 17.6655C75.9082 17.2255 75.6002 16.6975 75.4022 16.0815C75.3142 15.7955 75.2702 15.4435 75.2702 15.0255C75.2702 14.6075 75.3252 14.2005 75.4352 13.8045C75.5452 13.3865 75.7102 13.0345 75.9302 12.7485C76.2382 12.3305 76.7002 11.9455 77.3162 11.5935C78.0862 11.1755 78.9882 10.9665 80.0222 10.9665C80.7042 10.9665 81.3092 11.0545 81.8372 11.2305C82.2332 11.3625 82.5742 11.5825 82.8602 11.8905C83.1682 12.1765 83.3222 12.5615 83.3222 13.0455C83.3222 13.5955 83.1462 14.1235 82.7942 14.6295C82.4642 15.1135 81.9802 15.4105 81.3422 15.5205C80.9462 15.5645 80.5942 15.4985 80.2862 15.3225C79.9782 15.1245 79.8682 14.7615 79.9562 14.2335C80.5502 14.1015 80.9792 13.8595 81.2432 13.5075C81.3752 13.3095 81.4412 13.1115 81.4412 12.9135C81.4412 12.5395 81.2872 12.2865 80.9792 12.1545C80.6932 12.0005 80.4182 11.9235 80.1542 11.9235C79.8242 11.9235 79.5052 11.9675 79.1972 12.0555C78.9112 12.1215 78.6472 12.2425 78.4052 12.4185C77.9212 12.8365 77.6792 13.3205 77.6792 13.8705C77.6792 13.9585 77.6902 14.0575 77.7122 14.1675C77.7562 14.2775 77.7892 14.3875 77.8112 14.4975C77.9212 14.7835 78.0862 15.0475 78.3062 15.2895C78.5262 15.5315 78.7462 15.7405 78.9662 15.9165C79.5162 16.3125 80.0772 16.7415 80.6492 17.2035C81.2432 17.6655 81.6832 18.2265 81.9692 18.8865C82.1892 19.3485 82.2992 19.8215 82.2992 20.3055C82.2992 20.9655 82.1342 21.5705 81.8042 22.1205C81.4742 22.6485 81.1002 23.0665 80.6822 23.3745C81.4082 23.0665 82.1122 22.5275 82.7942 21.7575C83.4982 20.9655 84.1032 20.1845 84.6092 19.4145C84.9392 18.9085 85.2362 18.4355 85.5002 17.9955C85.7862 17.5335 86.0722 17.0275 86.3582 16.4775C86.4462 16.3235 86.5232 16.2465 86.5892 16.2465C86.7212 16.2465 86.7872 16.4335 86.7872 16.8075C86.7872 16.9615 86.7542 17.1485 86.6882 17.3685C86.6442 17.5885 86.5672 17.8085 86.4572 18.0285C86.0612 18.6885 85.6872 19.3045 85.3352 19.8765C84.9832 20.4265 84.5542 21.0315 84.0482 21.6915C83.0362 23.0335 81.9582 23.9905 80.8142 24.5625C79.6702 25.1125 78.3172 25.3875 76.7552 25.3875ZM95.2329 24.9255C94.5509 24.9255 94.0779 24.6615 93.8139 24.1335C93.5719 23.6055 93.4509 22.9565 93.4509 22.1865C93.4509 21.4825 93.5169 20.7895 93.6489 20.1075C93.7149 19.7995 93.7809 19.4915 93.8469 19.1835C93.9349 18.8535 94.0339 18.5125 94.1439 18.1605C93.7699 18.8425 93.3739 19.5025 92.9559 20.1405C92.5599 20.7785 92.1529 21.3395 91.7349 21.8235C91.0309 22.6815 90.2829 23.3965 89.4909 23.9685C88.7209 24.5405 87.9509 24.8265 87.1809 24.8265C86.5649 24.8265 86.0369 24.6065 85.5969 24.1665C85.1789 23.7045 84.9699 22.9125 84.9699 21.7905C84.9699 20.6465 85.1679 19.4695 85.5639 18.2595C85.9599 17.0495 86.5099 15.9275 87.2139 14.8935C87.9399 13.8375 88.7869 12.9905 89.7549 12.3525C90.7449 11.7145 91.8229 11.3955 92.9889 11.3955C93.3629 11.3955 93.7699 11.4505 94.2099 11.5605C94.6499 11.6705 95.0569 11.8795 95.4309 12.1875C95.8049 12.4735 96.0579 12.8805 96.1899 13.4085C96.2119 13.3645 96.2339 13.3315 96.2559 13.3095C96.2999 13.2875 96.3329 13.2655 96.3549 13.2435C96.6629 12.7595 97.0149 12.3525 97.4109 12.0225C97.8069 11.6925 98.2469 11.5275 98.7309 11.5275C98.9729 11.5275 99.3139 11.5385 99.7539 11.5605C100.194 11.5825 100.513 11.5825 100.711 11.5605C100.601 11.6485 100.447 11.8245 100.249 12.0885C100.073 12.3525 99.9079 12.6275 99.7539 12.9135C99.5999 13.1775 99.4789 13.3865 99.3909 13.5405C98.7969 14.6845 98.2579 15.8175 97.7739 16.9395C97.2899 18.0615 96.9159 19.1395 96.6519 20.1735C96.5859 20.3935 96.5419 20.6025 96.5199 20.8005C96.4979 20.9765 96.4869 21.1525 96.4869 21.3285C96.4869 21.9005 96.6739 22.1865 97.0479 22.1865C97.3999 22.1865 97.8399 21.9665 98.3679 21.5265C99.1379 20.9105 99.8089 20.1405 100.381 19.2165C100.975 18.2925 101.492 17.4015 101.932 16.5435C102.02 16.3895 102.097 16.3125 102.163 16.3125C102.295 16.3125 102.361 16.4995 102.361 16.8735C102.361 17.0495 102.328 17.2475 102.262 17.4675C102.218 17.6875 102.141 17.8965 102.031 18.0945C101.723 18.6225 101.316 19.2715 100.81 20.0415C100.326 20.8115 99.7759 21.5705 99.1599 22.3185C98.5439 23.0445 97.8949 23.6605 97.2129 24.1665C96.5529 24.6725 95.8929 24.9255 95.2329 24.9255ZM88.6659 22.0545C88.7319 22.0765 88.8309 22.0875 88.9629 22.0875C89.3809 22.0875 89.8319 21.9115 90.3159 21.5595C90.7999 21.2075 91.2839 20.7565 91.7679 20.2065C92.2519 19.6345 92.6809 19.0625 93.0549 18.4905C94.0229 16.9505 94.7379 15.7955 95.1999 15.0255C95.6619 14.2555 95.9259 13.8155 95.9919 13.7055C95.8819 13.3315 95.6839 13.0565 95.3979 12.8805C95.1339 12.7045 94.8149 12.6165 94.4409 12.6165C93.9569 12.6165 93.4399 12.7485 92.8899 13.0125C92.3619 13.2765 91.9109 13.5955 91.5369 13.9695C90.9649 14.5415 90.4149 15.2785 89.8869 16.1805C89.3809 17.0825 88.9629 17.9735 88.6329 18.8535C88.3249 19.7335 88.1709 20.4705 88.1709 21.0645C88.1709 21.6145 88.3359 21.9445 88.6659 22.0545ZM95.6176 32.9115C95.7276 32.7575 95.8706 32.4825 96.0466 32.0865C96.2226 31.7125 96.4096 31.3055 96.6076 30.8655C96.8056 30.4255 96.9706 30.0515 97.1026 29.7435C97.4766 28.8195 97.9056 27.6865 98.3896 26.3445C98.8736 25.0245 99.3686 23.6385 99.8746 22.1865C100.381 20.7345 100.865 19.3485 101.327 18.0285C101.789 16.7085 102.196 15.6195 102.548 14.7615C102.878 13.9695 103.164 13.3425 103.406 12.8805C103.648 12.3965 103.989 12.0555 104.429 11.8575C104.891 11.6375 105.584 11.5275 106.508 11.5275H107.498C107.19 11.7475 106.783 12.2535 106.277 13.0455C105.793 13.8155 105.331 14.6295 104.891 15.4875C105.045 15.2895 105.188 15.1025 105.32 14.9265C105.452 14.7285 105.595 14.5525 105.749 14.3985C106.453 13.5405 107.201 12.8255 107.993 12.2535C108.785 11.6815 109.555 11.3955 110.303 11.3955C110.919 11.3955 111.436 11.6265 111.854 12.0885C112.294 12.5505 112.514 13.3315 112.514 14.4315C112.514 15.4435 112.316 16.4665 111.92 17.5005C111.546 18.5125 111.04 19.4805 110.402 20.4045C109.764 21.3065 109.06 22.1095 108.29 22.8135C108.136 22.9675 107.96 23.1215 107.762 23.2755C107.586 23.4075 107.399 23.5395 107.201 23.6715C107.905 23.7375 108.598 23.5725 109.28 23.1765C109.984 22.7805 110.622 22.2965 111.194 21.7245C111.788 21.1525 112.272 20.6355 112.646 20.1735C113.086 19.6015 113.526 18.9415 113.966 18.1935C114.428 17.4455 114.802 16.7855 115.088 16.2135C115.176 16.0595 115.253 15.9825 115.319 15.9825C115.495 15.9825 115.583 16.1805 115.583 16.5765C115.583 16.9285 115.473 17.2915 115.253 17.6655C115.077 17.9955 114.835 18.4135 114.527 18.9195C114.219 19.4255 113.944 19.8655 113.702 20.2395C112.69 21.7135 111.513 22.9235 110.171 23.8695C108.829 24.8155 107.212 25.2885 105.32 25.2885C105.166 25.2885 105.001 25.2885 104.825 25.2885C104.671 25.2885 104.506 25.2775 104.33 25.2555C103.802 25.2115 103.307 25.0795 102.845 24.8595C102.383 24.6615 102.075 24.2765 101.921 23.7045L100.073 29.4795C99.8306 30.2495 99.6106 30.8875 99.4126 31.3935C99.1926 31.8995 98.9286 32.2735 98.6206 32.5155C98.2906 32.7795 97.8176 32.9115 97.2016 32.9115H95.6176ZM103.571 23.8695C103.945 23.8695 104.374 23.6825 104.858 23.3085C105.342 22.9125 105.815 22.4285 106.277 21.8565C106.761 21.2625 107.168 20.6905 107.498 20.1405C108.004 19.2605 108.433 18.3585 108.785 17.4345C109.137 16.5105 109.313 15.7515 109.313 15.1575C109.313 14.4975 109.049 14.1675 108.521 14.1675C108.059 14.1675 107.553 14.3875 107.003 14.8275C106.607 15.1355 106.156 15.5865 105.65 16.1805C105.166 16.7745 104.682 17.4455 104.198 18.1935C103.736 18.9195 103.351 19.6675 103.043 20.4375C102.757 21.1855 102.614 21.8675 102.614 22.4835C102.614 22.5935 102.614 22.7035 102.614 22.8135C102.636 22.9015 102.658 23.0005 102.68 23.1105C102.79 23.6165 103.087 23.8695 103.571 23.8695ZM108.605 32.9115C108.715 32.7575 108.858 32.4825 109.034 32.0865C109.21 31.7125 109.397 31.3055 109.595 30.8655C109.793 30.4255 109.958 30.0515 110.09 29.7435C110.464 28.8195 110.893 27.6865 111.377 26.3445C111.861 25.0245 112.356 23.6385 112.862 22.1865C113.368 20.7345 113.852 19.3485 114.314 18.0285C114.776 16.7085 115.183 15.6195 115.535 14.7615C115.865 13.9695 116.151 13.3425 116.393 12.8805C116.635 12.3965 116.976 12.0555 117.416 11.8575C117.878 11.6375 118.571 11.5275 119.495 11.5275H120.485C120.177 11.7475 119.77 12.2535 119.264 13.0455C118.78 13.8155 118.318 14.6295 117.878 15.4875C118.032 15.2895 118.175 15.1025 118.307 14.9265C118.439 14.7285 118.582 14.5525 118.736 14.3985C119.44 13.5405 120.188 12.8255 120.98 12.2535C121.772 11.6815 122.542 11.3955 123.29 11.3955C123.906 11.3955 124.423 11.6265 124.841 12.0885C125.281 12.5505 125.501 13.3315 125.501 14.4315C125.501 15.4435 125.303 16.4665 124.907 17.5005C124.533 18.5125 124.027 19.4805 123.389 20.4045C122.751 21.3065 122.047 22.1095 121.277 22.8135C121.123 22.9675 120.947 23.1215 120.749 23.2755C120.573 23.4075 120.386 23.5395 120.188 23.6715C120.892 23.7375 121.585 23.5725 122.267 23.1765C122.971 22.7805 123.609 22.2965 124.181 21.7245C124.775 21.1525 125.259 20.6355 125.633 20.1735C126.073 19.6015 126.513 18.9415 126.953 18.1935C127.415 17.4455 127.789 16.7855 128.075 16.2135C128.163 16.0595 128.24 15.9825 128.306 15.9825C128.482 15.9825 128.57 16.1805 128.57 16.5765C128.57 16.9285 128.46 17.2915 128.24 17.6655C128.064 17.9955 127.822 18.4135 127.514 18.9195C127.206 19.4255 126.931 19.8655 126.689 20.2395C125.677 21.7135 124.5 22.9235 123.158 23.8695C121.816 24.8155 120.199 25.2885 118.307 25.2885C118.153 25.2885 117.988 25.2885 117.812 25.2885C117.658 25.2885 117.493 25.2775 117.317 25.2555C116.789 25.2115 116.294 25.0795 115.832 24.8595C115.37 24.6615 115.062 24.2765 114.908 23.7045L113.06 29.4795C112.818 30.2495 112.598 30.8875 112.4 31.3935C112.18 31.8995 111.916 32.2735 111.608 32.5155C111.278 32.7795 110.805 32.9115 110.189 32.9115H108.605ZM116.558 23.8695C116.932 23.8695 117.361 23.6825 117.845 23.3085C118.329 22.9125 118.802 22.4285 119.264 21.8565C119.748 21.2625 120.155 20.6905 120.485 20.1405C120.991 19.2605 121.42 18.3585 121.772 17.4345C122.124 16.5105 122.3 15.7515 122.3 15.1575C122.3 14.4975 122.036 14.1675 121.508 14.1675C121.046 14.1675 120.54 14.3875 119.99 14.8275C119.594 15.1355 119.143 15.5865 118.637 16.1805C118.153 16.7745 117.669 17.4455 117.185 18.1935C116.723 18.9195 116.338 19.6675 116.03 20.4375C115.744 21.1855 115.601 21.8675 115.601 22.4835C115.601 22.5935 115.601 22.7035 115.601 22.8135C115.623 22.9015 115.645 23.0005 115.667 23.1105C115.777 23.6165 116.074 23.8695 116.558 23.8695ZM144.026 25.3875C142.926 25.3875 141.903 25.2885 140.957 25.0905C140.011 24.8925 139.219 24.5625 138.581 24.1005C138.141 23.7705 137.8 23.3525 137.558 22.8465C137.338 22.3405 137.228 21.8235 137.228 21.2955C137.228 20.6355 137.415 20.0195 137.789 19.4475C138.163 18.8755 138.757 18.4905 139.571 18.2925C139.681 18.2705 139.78 18.2595 139.868 18.2595C139.978 18.2375 140.077 18.2265 140.165 18.2265C140.605 18.2265 140.99 18.3255 141.32 18.5235C141.672 18.7215 141.914 18.9525 142.046 19.2165C141.958 19.2825 141.837 19.4035 141.683 19.5795C141.529 19.7335 141.43 19.8655 141.386 19.9755C141.056 20.5255 140.891 21.0755 140.891 21.6255C140.891 22.3735 141.177 22.9895 141.749 23.4735C142.343 23.9355 143.113 24.1665 144.059 24.1665C144.917 24.1665 145.72 23.9575 146.468 23.5395C147.238 23.0995 147.854 22.5165 148.316 21.7905C148.8 21.0645 149.042 20.2285 149.042 19.2825C149.042 18.5785 148.877 17.8305 148.547 17.0385C148.261 16.3565 147.865 15.7515 147.359 15.2235C146.875 14.6955 146.413 14.2005 145.973 13.7385C145.379 13.1005 144.807 12.4845 144.257 11.8905C143.729 11.2745 143.289 10.6145 142.937 9.91054C142.607 9.18454 142.442 8.37054 142.442 7.46854C142.442 6.61054 142.618 5.77454 142.97 4.96054C143.344 4.14654 143.872 3.45354 144.554 2.88154C145.324 2.22154 146.204 1.75954 147.194 1.49554C148.184 1.23154 149.218 1.09954 150.296 1.09954C151.638 1.09954 152.694 1.27554 153.464 1.62754C154.256 1.95754 154.817 2.38654 155.147 2.91454C155.499 3.44254 155.675 4.00354 155.675 4.59754C155.675 5.16954 155.543 5.71954 155.279 6.24754C155.037 6.77554 154.696 7.22654 154.256 7.60054C153.816 7.95254 153.332 8.17254 152.804 8.26054C152.716 8.28254 152.628 8.29354 152.54 8.29354C152.452 8.29354 152.353 8.29354 152.243 8.29354C151.759 8.29354 151.33 8.18354 150.956 7.96354C150.604 7.74354 150.428 7.36954 150.428 6.84154C150.428 6.77554 150.428 6.69854 150.428 6.61054C150.45 6.52254 150.472 6.43454 150.494 6.34654C150.89 6.34654 151.297 6.20354 151.715 5.91754C152.133 5.63154 152.408 5.31254 152.54 4.96054C152.65 4.67454 152.705 4.41054 152.705 4.16854C152.705 3.57454 152.43 3.11254 151.88 2.78254C151.352 2.43054 150.725 2.25454 149.999 2.25454C149.141 2.25454 148.371 2.44154 147.689 2.81554C147.029 3.16754 146.512 3.64054 146.138 4.23454C145.764 4.80654 145.577 5.43354 145.577 6.11554C145.577 6.79754 145.786 7.45754 146.204 8.09554C146.556 8.60154 146.996 9.12954 147.524 9.67954C148.052 10.2075 148.591 10.7245 149.141 11.2305C149.691 11.7145 150.164 12.1655 150.56 12.5835C151.462 13.4635 152.111 14.3655 152.507 15.2895C152.903 16.1915 153.101 17.0825 153.101 17.9625C153.101 18.9745 152.859 19.9315 152.375 20.8335C151.913 21.7135 151.264 22.4945 150.428 23.1765C149.592 23.8585 148.624 24.3975 147.524 24.7935C146.424 25.1895 145.258 25.3875 144.026 25.3875ZM156.58 24.9255C155.942 24.9255 155.458 24.6725 155.128 24.1665C154.974 23.9245 154.864 23.6385 154.798 23.3085C154.732 22.9785 154.699 22.6375 154.699 22.2855C154.699 21.9335 154.721 21.5815 154.765 21.2295C154.809 20.8555 154.864 20.4925 154.93 20.1405C155.04 19.5685 155.161 19.0515 155.293 18.5895C155.447 18.1055 155.601 17.6435 155.755 17.2035V17.1705C155.579 17.5005 155.359 17.8635 155.095 18.2595C154.831 18.6335 154.644 18.9085 154.534 19.0845C154.38 19.3265 154.259 19.4475 154.171 19.4475C154.083 19.4475 154.039 19.3485 154.039 19.1505C154.039 18.7105 154.171 18.2265 154.435 17.6985C154.611 17.3465 154.853 16.8955 155.161 16.3455C155.469 15.7735 155.788 15.1575 156.118 14.4975C156.448 13.8375 156.734 13.1995 156.976 12.5835H154.765C154.655 12.5835 154.633 12.4955 154.699 12.3195C154.765 12.1435 154.864 11.9785 154.996 11.8245C155.128 11.6485 155.227 11.5605 155.293 11.5605H157.801C158.043 10.9885 158.318 10.3725 158.626 9.71254C158.956 9.05254 159.319 8.43654 159.715 7.86454C160.133 7.27054 160.584 6.78654 161.068 6.41254C161.552 6.03854 162.069 5.85154 162.619 5.85154C162.861 5.85154 163.158 5.85154 163.51 5.85154C163.884 5.85154 164.115 5.84054 164.203 5.81854C163.741 6.12654 163.202 6.74254 162.586 7.66654C161.97 8.56854 161.299 9.86654 160.573 11.5605H163.906C163.972 11.5605 163.95 11.6485 163.84 11.8245C163.73 11.9785 163.587 12.1435 163.411 12.3195C163.257 12.4955 163.103 12.5835 162.949 12.5835H160.111C159.825 13.3095 159.506 14.1015 159.154 14.9595C158.824 15.8175 158.516 16.6645 158.23 17.5005C157.966 18.3145 157.768 19.0625 157.636 19.7445C157.548 20.1625 157.504 20.5475 157.504 20.8995C157.504 21.7355 157.768 22.1535 158.296 22.1535C158.648 22.1535 159.066 21.9775 159.55 21.6255C160.034 21.2735 160.518 20.7895 161.002 20.1735C161.442 19.6015 161.86 18.9855 162.256 18.3255C162.674 17.6655 163.026 17.0605 163.312 16.5105C163.4 16.3565 163.477 16.2795 163.543 16.2795C163.675 16.2795 163.741 16.4555 163.741 16.8075C163.741 16.9835 163.708 17.1925 163.642 17.4345C163.598 17.6545 163.51 17.8745 163.378 18.0945C163.07 18.6225 162.707 19.2055 162.289 19.8435C161.871 20.4595 161.442 21.0755 161.002 21.6915C160.694 22.0875 160.287 22.5385 159.781 23.0445C159.297 23.5505 158.769 23.9905 158.197 24.3645C157.647 24.7385 157.108 24.9255 156.58 24.9255ZM172.19 24.9255C171.508 24.9255 171.035 24.6615 170.771 24.1335C170.529 23.6055 170.408 22.9565 170.408 22.1865C170.408 21.4825 170.474 20.7895 170.606 20.1075C170.672 19.7995 170.738 19.4915 170.804 19.1835C170.892 18.8535 170.991 18.5125 171.101 18.1605C170.727 18.8425 170.331 19.5025 169.913 20.1405C169.517 20.7785 169.11 21.3395 168.692 21.8235C167.988 22.6815 167.24 23.3965 166.448 23.9685C165.678 24.5405 164.908 24.8265 164.138 24.8265C163.522 24.8265 162.994 24.6065 162.554 24.1665C162.136 23.7045 161.927 22.9125 161.927 21.7905C161.927 20.6465 162.125 19.4695 162.521 18.2595C162.917 17.0495 163.467 15.9275 164.171 14.8935C164.897 13.8375 165.744 12.9905 166.712 12.3525C167.702 11.7145 168.78 11.3955 169.946 11.3955C170.32 11.3955 170.727 11.4505 171.167 11.5605C171.607 11.6705 172.014 11.8795 172.388 12.1875C172.762 12.4735 173.015 12.8805 173.147 13.4085C173.169 13.3645 173.191 13.3315 173.213 13.3095C173.257 13.2875 173.29 13.2655 173.312 13.2435C173.62 12.7595 173.972 12.3525 174.368 12.0225C174.764 11.6925 175.204 11.5275 175.688 11.5275C175.93 11.5275 176.271 11.5385 176.711 11.5605C177.151 11.5825 177.47 11.5825 177.668 11.5605C177.558 11.6485 177.404 11.8245 177.206 12.0885C177.03 12.3525 176.865 12.6275 176.711 12.9135C176.557 13.1775 176.436 13.3865 176.348 13.5405C175.754 14.6845 175.215 15.8175 174.731 16.9395C174.247 18.0615 173.873 19.1395 173.609 20.1735C173.543 20.3935 173.499 20.6025 173.477 20.8005C173.455 20.9765 173.444 21.1525 173.444 21.3285C173.444 21.9005 173.631 22.1865 174.005 22.1865C174.357 22.1865 174.797 21.9665 175.325 21.5265C176.095 20.9105 176.766 20.1405 177.338 19.2165C177.932 18.2925 178.449 17.4015 178.889 16.5435C178.977 16.3895 179.054 16.3125 179.12 16.3125C179.252 16.3125 179.318 16.4995 179.318 16.8735C179.318 17.0495 179.285 17.2475 179.219 17.4675C179.175 17.6875 179.098 17.8965 178.988 18.0945C178.68 18.6225 178.273 19.2715 177.767 20.0415C177.283 20.8115 176.733 21.5705 176.117 22.3185C175.501 23.0445 174.852 23.6605 174.17 24.1665C173.51 24.6725 172.85 24.9255 172.19 24.9255ZM165.623 22.0545C165.689 22.0765 165.788 22.0875 165.92 22.0875C166.338 22.0875 166.789 21.9115 167.273 21.5595C167.757 21.2075 168.241 20.7565 168.725 20.2065C169.209 19.6345 169.638 19.0625 170.012 18.4905C170.98 16.9505 171.695 15.7955 172.157 15.0255C172.619 14.2555 172.883 13.8155 172.949 13.7055C172.839 13.3315 172.641 13.0565 172.355 12.8805C172.091 12.7045 171.772 12.6165 171.398 12.6165C170.914 12.6165 170.397 12.7485 169.847 13.0125C169.319 13.2765 168.868 13.5955 168.494 13.9695C167.922 14.5415 167.372 15.2785 166.844 16.1805C166.338 17.0825 165.92 17.9735 165.59 18.8535C165.282 19.7335 165.128 20.4705 165.128 21.0645C165.128 21.6145 165.293 21.9445 165.623 22.0545ZM180.396 24.9255C179.758 24.9255 179.274 24.6725 178.944 24.1665C178.79 23.9245 178.68 23.6385 178.614 23.3085C178.548 22.9785 178.515 22.6375 178.515 22.2855C178.515 21.9335 178.537 21.5815 178.581 21.2295C178.625 20.8555 178.68 20.4925 178.746 20.1405C178.856 19.5685 178.977 19.0515 179.109 18.5895C179.263 18.1055 179.417 17.6435 179.571 17.2035V17.1705C179.395 17.5005 179.175 17.8635 178.911 18.2595C178.647 18.6335 178.46 18.9085 178.35 19.0845C178.196 19.3265 178.075 19.4475 177.987 19.4475C177.899 19.4475 177.855 19.3485 177.855 19.1505C177.855 18.7105 177.987 18.2265 178.251 17.6985C178.427 17.3465 178.669 16.8955 178.977 16.3455C179.285 15.7735 179.604 15.1575 179.934 14.4975C180.264 13.8375 180.55 13.1995 180.792 12.5835H178.581C178.471 12.5835 178.449 12.4955 178.515 12.3195C178.581 12.1435 178.68 11.9785 178.812 11.8245C178.944 11.6485 179.043 11.5605 179.109 11.5605H181.617C181.859 10.9885 182.134 10.3725 182.442 9.71254C182.772 9.05254 183.135 8.43654 183.531 7.86454C183.949 7.27054 184.4 6.78654 184.884 6.41254C185.368 6.03854 185.885 5.85154 186.435 5.85154C186.677 5.85154 186.974 5.85154 187.326 5.85154C187.7 5.85154 187.931 5.84054 188.019 5.81854C187.557 6.12654 187.018 6.74254 186.402 7.66654C185.786 8.56854 185.115 9.86654 184.389 11.5605H187.722C187.788 11.5605 187.766 11.6485 187.656 11.8245C187.546 11.9785 187.403 12.1435 187.227 12.3195C187.073 12.4955 186.919 12.5835 186.765 12.5835H183.927C183.641 13.3095 183.322 14.1015 182.97 14.9595C182.64 15.8175 182.332 16.6645 182.046 17.5005C181.782 18.3145 181.584 19.0625 181.452 19.7445C181.364 20.1625 181.32 20.5475 181.32 20.8995C181.32 21.7355 181.584 22.1535 182.112 22.1535C182.464 22.1535 182.882 21.9775 183.366 21.6255C183.85 21.2735 184.334 20.7895 184.818 20.1735C185.258 19.6015 185.676 18.9855 186.072 18.3255C186.49 17.6655 186.842 17.0605 187.128 16.5105C187.216 16.3565 187.293 16.2795 187.359 16.2795C187.491 16.2795 187.557 16.4555 187.557 16.8075C187.557 16.9835 187.524 17.1925 187.458 17.4345C187.414 17.6545 187.326 17.8745 187.194 18.0945C186.886 18.6225 186.523 19.2055 186.105 19.8435C185.687 20.4595 185.258 21.0755 184.818 21.6915C184.51 22.0875 184.103 22.5385 183.597 23.0445C183.113 23.5505 182.585 23.9905 182.013 24.3645C181.463 24.7385 180.924 24.9255 180.396 24.9255ZM187.557 24.9255C186.985 24.9255 186.512 24.6615 186.138 24.1335C185.786 23.5835 185.654 22.7365 185.742 21.5925C185.786 21.1085 185.896 20.4925 186.072 19.7445C186.248 18.9965 186.479 18.1935 186.765 17.3355C187.073 16.4555 187.414 15.6085 187.788 14.7945C188.162 13.9585 188.569 13.2215 189.009 12.5835C189.251 12.2535 189.493 12.0555 189.735 11.9895C189.999 11.9015 190.472 11.8575 191.154 11.8575H192.738C192.364 12.3855 191.968 13.0455 191.55 13.8375C191.132 14.6295 190.747 15.4215 190.395 16.2135C190.043 16.9835 189.768 17.6325 189.57 18.1605C189.526 18.3145 189.438 18.5895 189.306 18.9855C189.174 19.3595 189.053 19.7775 188.943 20.2395C188.833 20.7015 188.778 21.1305 188.778 21.5265C188.778 21.8785 188.844 22.1755 188.976 22.4175C189.108 22.6595 189.35 22.7805 189.702 22.7805C190.12 22.7585 190.571 22.4945 191.055 21.9885C191.539 21.4825 192.023 20.8335 192.507 20.0415C192.991 19.2495 193.464 18.4245 193.926 17.5665C194.41 16.6865 194.839 15.8725 195.213 15.1245C195.609 14.3545 195.939 13.7605 196.203 13.3425C196.533 12.8365 196.885 12.3965 197.259 12.0225C197.633 11.6265 198.062 11.4285 198.546 11.4285C198.722 11.4285 198.953 11.4395 199.239 11.4615C199.547 11.4615 199.844 11.4615 200.13 11.4615C200.438 11.4615 200.647 11.4505 200.757 11.4285C200.625 11.5165 200.471 11.6925 200.295 11.9565C200.119 12.2205 199.943 12.4955 199.767 12.7815C199.613 13.0455 199.492 13.2655 199.404 13.4415C198.832 14.5855 198.271 15.7405 197.721 16.9065C197.193 18.0505 196.797 19.1395 196.533 20.1735C196.423 20.5695 196.368 20.9105 196.368 21.1965C196.368 21.8565 196.588 22.1865 197.028 22.1865C197.336 22.1865 197.776 21.9665 198.348 21.5265C198.788 21.1745 199.217 20.7235 199.635 20.1735C200.097 19.6015 200.526 18.9855 200.922 18.3255C201.318 17.6655 201.659 17.0605 201.945 16.5105C202.033 16.3565 202.11 16.2795 202.176 16.2795C202.308 16.2795 202.374 16.4555 202.374 16.8075C202.374 16.9835 202.341 17.1925 202.275 17.4345C202.231 17.6545 202.143 17.8745 202.011 18.0945C201.703 18.6225 201.34 19.2055 200.922 19.8435C200.504 20.4595 200.075 21.0755 199.635 21.6915C199.327 22.0875 198.92 22.5385 198.414 23.0445C197.908 23.5505 197.369 23.9905 196.797 24.3645C196.247 24.7385 195.708 24.9255 195.18 24.9255C194.872 24.9255 194.586 24.8595 194.322 24.7275C194.058 24.6175 193.838 24.3865 193.662 24.0345C193.442 23.5725 193.332 22.9455 193.332 22.1535C193.332 21.9115 193.343 21.6585 193.365 21.3945C193.387 21.1085 193.42 20.8225 193.464 20.5365C193.134 20.9985 192.782 21.4275 192.408 21.8235C192.056 22.2195 191.693 22.6155 191.319 23.0115C190.483 23.8475 189.768 24.3755 189.174 24.5955C188.602 24.8155 188.063 24.9255 187.557 24.9255ZM204.824 25.3875C204.076 25.3875 203.372 25.2885 202.712 25.0905C202.052 24.8925 201.513 24.5845 201.095 24.1665C200.677 23.7485 200.468 23.2205 200.468 22.5825C200.468 22.0985 200.611 21.6255 200.897 21.1635C201.205 20.7015 201.634 20.4705 202.184 20.4705C202.426 20.4705 202.646 20.5255 202.844 20.6355C203.042 20.7455 203.174 20.8885 203.24 21.0645C203.218 21.0865 203.163 21.1635 203.075 21.2955C202.987 21.4055 202.932 21.4825 202.91 21.5265C202.712 21.9225 202.613 22.2855 202.613 22.6155C202.613 23.0775 202.778 23.4515 203.108 23.7375C203.46 24.0235 203.911 24.1665 204.461 24.1665C205.187 24.1445 205.814 23.8915 206.342 23.4075C206.892 22.9015 207.167 22.3075 207.167 21.6255C207.167 21.2295 207.079 20.8555 206.903 20.5035C206.617 19.9095 206.232 19.4035 205.748 18.9855C205.286 18.5455 204.835 18.1055 204.395 17.6655C203.977 17.2255 203.669 16.6975 203.471 16.0815C203.383 15.7955 203.339 15.4435 203.339 15.0255C203.339 14.6075 203.394 14.2005 203.504 13.8045C203.614 13.3865 203.779 13.0345 203.999 12.7485C204.307 12.3305 204.769 11.9455 205.385 11.5935C206.155 11.1755 207.057 10.9665 208.091 10.9665C208.773 10.9665 209.378 11.0545 209.906 11.2305C210.302 11.3625 210.643 11.5825 210.929 11.8905C211.237 12.1765 211.391 12.5615 211.391 13.0455C211.391 13.5955 211.215 14.1235 210.863 14.6295C210.533 15.1135 210.049 15.4105 209.411 15.5205C209.015 15.5645 208.663 15.4985 208.355 15.3225C208.047 15.1245 207.937 14.7615 208.025 14.2335C208.619 14.1015 209.048 13.8595 209.312 13.5075C209.444 13.3095 209.51 13.1115 209.51 12.9135C209.51 12.5395 209.356 12.2865 209.048 12.1545C208.762 12.0005 208.487 11.9235 208.223 11.9235C207.893 11.9235 207.574 11.9675 207.266 12.0555C206.98 12.1215 206.716 12.2425 206.474 12.4185C205.99 12.8365 205.748 13.3205 205.748 13.8705C205.748 13.9585 205.759 14.0575 205.781 14.1675C205.825 14.2775 205.858 14.3875 205.88 14.4975C205.99 14.7835 206.155 15.0475 206.375 15.2895C206.595 15.5315 206.815 15.7405 207.035 15.9165C207.585 16.3125 208.146 16.7415 208.718 17.2035C209.312 17.6655 209.752 18.2265 210.038 18.8865C210.258 19.3485 210.368 19.8215 210.368 20.3055C210.368 20.9655 210.203 21.5705 209.873 22.1205C209.543 22.6485 209.169 23.0665 208.751 23.3745C209.477 23.0665 210.181 22.5275 210.863 21.7575C211.567 20.9655 212.172 20.1845 212.678 19.4145C213.008 18.9085 213.305 18.4355 213.569 17.9955C213.855 17.5335 214.141 17.0275 214.427 16.4775C214.515 16.3235 214.592 16.2465 214.658 16.2465C214.79 16.2465 214.856 16.4335 214.856 16.8075C214.856 16.9615 214.823 17.1485 214.757 17.3685C214.713 17.5885 214.636 17.8085 214.526 18.0285C214.13 18.6885 213.756 19.3045 213.404 19.8765C213.052 20.4265 212.623 21.0315 212.117 21.6915C211.105 23.0335 210.027 23.9905 208.883 24.5625C207.739 25.1125 206.386 25.3875 204.824 25.3875ZM230.522 25.3875C229.422 25.3875 228.399 25.2885 227.453 25.0905C226.507 24.8925 225.715 24.5625 225.077 24.1005C224.637 23.7705 224.296 23.3525 224.054 22.8465C223.834 22.3405 223.724 21.8235 223.724 21.2955C223.724 20.6355 223.911 20.0195 224.285 19.4475C224.659 18.8755 225.253 18.4905 226.067 18.2925C226.177 18.2705 226.276 18.2595 226.364 18.2595C226.474 18.2375 226.573 18.2265 226.661 18.2265C227.101 18.2265 227.486 18.3255 227.816 18.5235C228.168 18.7215 228.41 18.9525 228.542 19.2165C228.454 19.2825 228.333 19.4035 228.179 19.5795C228.025 19.7335 227.926 19.8655 227.882 19.9755C227.552 20.5255 227.387 21.0755 227.387 21.6255C227.387 22.3735 227.673 22.9895 228.245 23.4735C228.839 23.9355 229.609 24.1665 230.555 24.1665C231.413 24.1665 232.216 23.9575 232.964 23.5395C233.734 23.0995 234.35 22.5165 234.812 21.7905C235.296 21.0645 235.538 20.2285 235.538 19.2825C235.538 18.5785 235.373 17.8305 235.043 17.0385C234.757 16.3565 234.361 15.7515 233.855 15.2235C233.371 14.6955 232.909 14.2005 232.469 13.7385C231.875 13.1005 231.303 12.4845 230.753 11.8905C230.225 11.2745 229.785 10.6145 229.433 9.91054C229.103 9.18454 228.938 8.37054 228.938 7.46854C228.938 6.61054 229.114 5.77454 229.466 4.96054C229.84 4.14654 230.368 3.45354 231.05 2.88154C231.82 2.22154 232.7 1.75954 233.69 1.49554C234.68 1.23154 235.714 1.09954 236.792 1.09954C238.134 1.09954 239.19 1.27554 239.96 1.62754C240.752 1.95754 241.313 2.38654 241.643 2.91454C241.995 3.44254 242.171 4.00354 242.171 4.59754C242.171 5.16954 242.039 5.71954 241.775 6.24754C241.533 6.77554 241.192 7.22654 240.752 7.60054C240.312 7.95254 239.828 8.17254 239.3 8.26054C239.212 8.28254 239.124 8.29354 239.036 8.29354C238.948 8.29354 238.849 8.29354 238.739 8.29354C238.255 8.29354 237.826 8.18354 237.452 7.96354C237.1 7.74354 236.924 7.36954 236.924 6.84154C236.924 6.77554 236.924 6.69854 236.924 6.61054C236.946 6.52254 236.968 6.43454 236.99 6.34654C237.386 6.34654 237.793 6.20354 238.211 5.91754C238.629 5.63154 238.904 5.31254 239.036 4.96054C239.146 4.67454 239.201 4.41054 239.201 4.16854C239.201 3.57454 238.926 3.11254 238.376 2.78254C237.848 2.43054 237.221 2.25454 236.495 2.25454C235.637 2.25454 234.867 2.44154 234.185 2.81554C233.525 3.16754 233.008 3.64054 232.634 4.23454C232.26 4.80654 232.073 5.43354 232.073 6.11554C232.073 6.79754 232.282 7.45754 232.7 8.09554C233.052 8.60154 233.492 9.12954 234.02 9.67954C234.548 10.2075 235.087 10.7245 235.637 11.2305C236.187 11.7145 236.66 12.1655 237.056 12.5835C237.958 13.4635 238.607 14.3655 239.003 15.2895C239.399 16.1915 239.597 17.0825 239.597 17.9625C239.597 18.9745 239.355 19.9315 238.871 20.8335C238.409 21.7135 237.76 22.4945 236.924 23.1765C236.088 23.8585 235.12 24.3975 234.02 24.7935C232.92 25.1895 231.754 25.3875 230.522 25.3875ZM250.468 24.9255C249.786 24.9255 249.313 24.6615 249.049 24.1335C248.807 23.6055 248.686 22.9565 248.686 22.1865C248.686 21.4825 248.752 20.7895 248.884 20.1075C248.95 19.7995 249.016 19.4915 249.082 19.1835C249.17 18.8535 249.269 18.5125 249.379 18.1605C249.005 18.8425 248.609 19.5025 248.191 20.1405C247.795 20.7785 247.388 21.3395 246.97 21.8235C246.266 22.6815 245.518 23.3965 244.726 23.9685C243.956 24.5405 243.186 24.8265 242.416 24.8265C241.8 24.8265 241.272 24.6065 240.832 24.1665C240.414 23.7045 240.205 22.9125 240.205 21.7905C240.205 20.6465 240.403 19.4695 240.799 18.2595C241.195 17.0495 241.745 15.9275 242.449 14.8935C243.175 13.8375 244.022 12.9905 244.99 12.3525C245.98 11.7145 247.058 11.3955 248.224 11.3955C248.598 11.3955 249.005 11.4505 249.445 11.5605C249.885 11.6705 250.292 11.8795 250.666 12.1875C251.04 12.4735 251.293 12.8805 251.425 13.4085C251.447 13.3645 251.469 13.3315 251.491 13.3095C251.535 13.2875 251.568 13.2655 251.59 13.2435C251.898 12.7595 252.25 12.3525 252.646 12.0225C253.042 11.6925 253.482 11.5275 253.966 11.5275C254.208 11.5275 254.549 11.5385 254.989 11.5605C255.429 11.5825 255.748 11.5825 255.946 11.5605C255.836 11.6485 255.682 11.8245 255.484 12.0885C255.308 12.3525 255.143 12.6275 254.989 12.9135C254.835 13.1775 254.714 13.3865 254.626 13.5405C254.032 14.6845 253.493 15.8175 253.009 16.9395C252.525 18.0615 252.151 19.1395 251.887 20.1735C251.821 20.3935 251.777 20.6025 251.755 20.8005C251.733 20.9765 251.722 21.1525 251.722 21.3285C251.722 21.9005 251.909 22.1865 252.283 22.1865C252.635 22.1865 253.075 21.9665 253.603 21.5265C254.373 20.9105 255.044 20.1405 255.616 19.2165C256.21 18.2925 256.727 17.4015 257.167 16.5435C257.255 16.3895 257.332 16.3125 257.398 16.3125C257.53 16.3125 257.596 16.4995 257.596 16.8735C257.596 17.0495 257.563 17.2475 257.497 17.4675C257.453 17.6875 257.376 17.8965 257.266 18.0945C256.958 18.6225 256.551 19.2715 256.045 20.0415C255.561 20.8115 255.011 21.5705 254.395 22.3185C253.779 23.0445 253.13 23.6605 252.448 24.1665C251.788 24.6725 251.128 24.9255 250.468 24.9255ZM243.901 22.0545C243.967 22.0765 244.066 22.0875 244.198 22.0875C244.616 22.0875 245.067 21.9115 245.551 21.5595C246.035 21.2075 246.519 20.7565 247.003 20.2065C247.487 19.6345 247.916 19.0625 248.29 18.4905C249.258 16.9505 249.973 15.7955 250.435 15.0255C250.897 14.2555 251.161 13.8155 251.227 13.7055C251.117 13.3315 250.919 13.0565 250.633 12.8805C250.369 12.7045 250.05 12.6165 249.676 12.6165C249.192 12.6165 248.675 12.7485 248.125 13.0125C247.597 13.2765 247.146 13.5955 246.772 13.9695C246.2 14.5415 245.65 15.2785 245.122 16.1805C244.616 17.0825 244.198 17.9735 243.868 18.8535C243.56 19.7335 243.406 20.4705 243.406 21.0645C243.406 21.6145 243.571 21.9445 243.901 22.0545ZM257.519 24.9585C256.947 24.9585 256.485 24.6505 256.133 24.0345C255.781 23.4185 255.649 22.6045 255.737 21.5925C255.781 20.9545 255.924 20.1515 256.166 19.1835C256.43 18.1935 256.76 17.2035 257.156 16.2135C257.552 15.2015 257.97 14.3435 258.41 13.6395C258.982 12.7375 259.62 12.1545 260.324 11.8905C261.05 11.6265 261.952 11.4945 263.03 11.4945C263.118 11.4945 263.162 11.5385 263.162 11.6265C263.162 11.7145 263.096 11.8245 262.964 11.9565C262.656 12.2205 262.293 12.7045 261.875 13.4085C261.457 14.1125 261.05 14.8825 260.654 15.7185C260.28 16.5545 259.95 17.3245 259.664 18.0285C259.444 18.6005 259.235 19.1945 259.037 19.8105C258.861 20.4265 258.773 20.9765 258.773 21.4605C258.773 21.8565 258.85 22.1755 259.004 22.4175C259.18 22.6595 259.477 22.7805 259.895 22.7805C260.335 22.7585 260.819 22.4395 261.347 21.8235C261.875 21.2075 262.381 20.4485 262.865 19.5465C263.349 18.6445 263.745 17.7645 264.053 16.9065C264.009 16.6645 263.965 16.4115 263.921 16.1475C263.899 15.8835 263.888 15.6085 263.888 15.3225C263.888 14.9265 263.921 14.5195 263.987 14.1015C264.075 13.6615 264.196 13.2325 264.35 12.8145C264.636 12.0885 265.032 11.6595 265.538 11.5275C265.626 11.5055 265.703 11.4945 265.769 11.4945C265.857 11.4725 265.945 11.4615 266.033 11.4615C266.451 11.4615 266.726 11.6155 266.858 11.9235C267.012 12.2095 267.089 12.5505 267.089 12.9465C267.089 13.3425 267.045 13.7385 266.957 14.1345C266.869 14.5085 266.792 14.7945 266.726 14.9925C266.572 15.4105 266.396 15.8175 266.198 16.2135C266 16.5875 265.802 16.9615 265.604 17.3355C265.648 18.0175 265.824 18.5455 266.132 18.9195C266.462 19.2935 266.847 19.4805 267.287 19.4805C267.837 19.4805 268.387 19.2385 268.937 18.7545C269.245 18.4905 269.52 18.1605 269.762 17.7645C270.026 17.3465 270.257 16.9615 270.455 16.6095C270.565 16.4115 270.642 16.3675 270.686 16.4775C270.73 16.5875 270.752 16.7635 270.752 17.0055C270.752 17.2035 270.73 17.4235 270.686 17.6655C270.664 17.8855 270.609 18.0615 270.521 18.1935C270.213 18.7435 269.861 19.2055 269.465 19.5795C269.069 19.9315 268.651 20.1955 268.211 20.3715C267.859 20.5035 267.496 20.5695 267.122 20.5695C266.616 20.5695 266.143 20.4265 265.703 20.1405C265.285 19.8325 264.955 19.3705 264.713 18.7545C264.251 19.4365 263.822 20.0635 263.426 20.6355C263.052 21.1855 262.766 21.5815 262.568 21.8235C261.908 22.6595 261.149 23.3965 260.291 24.0345C259.455 24.6505 258.531 24.9585 257.519 24.9585ZM275.743 24.2655C274.731 24.7935 273.664 25.0575 272.542 25.0575C271.596 25.0575 270.716 24.8265 269.902 24.3645C269.088 23.9025 268.538 23.1655 268.252 22.1535C268.12 21.6915 268.054 21.2075 268.054 20.7015C268.054 19.8655 268.197 19.0075 268.483 18.1275C268.791 17.2255 269.187 16.4005 269.671 15.6525C270.419 14.4865 271.365 13.5185 272.509 12.7485C273.653 11.9785 274.918 11.5935 276.304 11.5935C277.338 11.5935 278.141 11.8575 278.713 12.3855C279.285 12.9135 279.571 13.5295 279.571 14.2335C279.571 15.0695 279.285 15.8065 278.713 16.4445C278.163 17.0605 277.437 17.5335 276.535 17.8635C276.095 18.0175 275.622 18.1385 275.116 18.2265C274.632 18.2925 274.17 18.3255 273.73 18.3255C272.828 18.3255 272.135 18.2045 271.651 17.9625C271.233 19.0405 271.024 20.0305 271.024 20.9325C271.024 21.7465 271.211 22.4175 271.585 22.9455C271.959 23.4515 272.553 23.7045 273.367 23.7045C274.049 23.7045 274.72 23.5175 275.38 23.1435C276.062 22.7695 276.689 22.3075 277.261 21.7575C277.855 21.2075 278.35 20.6795 278.746 20.1735C279.054 19.7995 279.318 19.4475 279.538 19.1175C279.758 18.7875 279.989 18.4135 280.231 17.9955C280.473 17.5555 280.759 17.0165 281.089 16.3785C281.177 16.2245 281.254 16.1475 281.32 16.1475C281.452 16.1475 281.518 16.3235 281.518 16.6755C281.518 16.8735 281.485 17.0935 281.419 17.3355C281.375 17.5555 281.287 17.7865 281.155 18.0285C280.847 18.5785 280.473 19.1835 280.033 19.8435C279.615 20.4815 279.186 21.0975 278.746 21.6915C278.35 22.2195 277.899 22.7035 277.393 23.1435C276.887 23.5835 276.337 23.9575 275.743 24.2655ZM272.74 17.2365C272.85 17.3025 272.971 17.3465 273.103 17.3685C273.235 17.3905 273.367 17.4015 273.499 17.4015C273.939 17.4015 274.379 17.3025 274.819 17.1045C275.259 16.8845 275.633 16.6645 275.941 16.4445C276.447 16.0925 276.876 15.6745 277.228 15.1905C277.58 14.7065 277.778 14.1565 277.822 13.5405C277.844 13.2765 277.778 13.0565 277.624 12.8805C277.492 12.6825 277.25 12.5835 276.898 12.5835C276.722 12.5835 276.502 12.6165 276.238 12.6825C275.886 12.7705 275.534 12.9355 275.182 13.1775C274.83 13.4195 274.489 13.7055 274.159 14.0355C274.049 14.1455 273.851 14.3655 273.565 14.6955C273.301 15.0035 273.048 15.3555 272.806 15.7515C272.564 16.1255 272.443 16.4555 272.443 16.7415C272.443 16.9835 272.542 17.1485 272.74 17.2365ZM285.326 24.9585C284.622 24.9585 284.116 24.6615 283.808 24.0675C283.566 23.5395 283.445 22.9125 283.445 22.1865C283.445 21.3725 283.566 20.4705 283.808 19.4805C284.05 18.4905 284.38 17.4785 284.798 16.4445C284.952 16.0705 285.15 15.5975 285.392 15.0255C285.656 14.4535 285.964 13.8925 286.316 13.3425C286.008 13.6065 285.645 13.8265 285.227 14.0025C284.809 14.1565 284.402 14.2335 284.006 14.2335C283.698 14.2335 283.445 14.1895 283.247 14.1015C283.071 14.4535 282.785 15.0255 282.389 15.8175C281.993 16.6095 281.465 17.5445 280.805 18.6225C280.739 18.7325 280.673 18.7325 280.607 18.6225C280.563 18.4905 280.541 18.3145 280.541 18.0945C280.541 17.9185 280.563 17.7315 280.607 17.5335C280.651 17.3355 280.717 17.1485 280.805 16.9725C281.025 16.5545 281.245 16.1255 281.465 15.6855C281.685 15.2235 281.883 14.8165 282.059 14.4645C282.235 14.1125 282.334 13.8925 282.356 13.8045C281.96 13.6065 281.663 13.3315 281.465 12.9795C281.267 12.6055 281.168 12.2425 281.168 11.8905C281.168 11.5385 281.245 11.2195 281.399 10.9335C281.575 10.6475 281.828 10.4275 282.158 10.2735C282.356 10.2075 282.543 10.1745 282.719 10.1745C283.203 10.1745 283.599 10.3285 283.907 10.6365C283.885 10.7245 283.863 10.8235 283.841 10.9335C283.841 11.0215 283.841 11.1205 283.841 11.2305C283.841 11.9125 284.116 12.4185 284.666 12.7485C285.216 13.0785 285.81 13.1995 286.448 13.1115C286.756 12.6715 287.108 12.2865 287.504 11.9565C287.9 11.6265 288.329 11.4615 288.791 11.4615C289.033 11.4615 289.374 11.4725 289.814 11.4945C290.276 11.5165 290.606 11.5165 290.804 11.4945C290.672 11.5825 290.518 11.7585 290.342 12.0225C290.166 12.2865 290.001 12.5615 289.847 12.8475C289.693 13.1335 289.572 13.3535 289.484 13.5075C288.89 14.6515 288.34 15.7955 287.834 16.9395C287.328 18.0615 286.943 19.1395 286.679 20.1735C286.635 20.3715 286.591 20.5585 286.547 20.7345C286.525 20.8885 286.514 21.0535 286.514 21.2295C286.514 21.8895 286.734 22.2195 287.174 22.2195C287.482 22.2195 287.922 21.9995 288.494 21.5595C289 21.1415 289.451 20.6795 289.847 20.1735C290.287 19.6015 290.705 18.9855 291.101 18.3255C291.497 17.6655 291.838 17.0605 292.124 16.5105C292.234 16.3345 292.311 16.2465 292.355 16.2465C292.487 16.2465 292.553 16.4445 292.553 16.8405C292.553 16.9945 292.531 17.1815 292.487 17.4015C292.443 17.6215 292.366 17.8305 292.256 18.0285C291.926 18.5785 291.552 19.1835 291.134 19.8435C290.716 20.4815 290.287 21.1085 289.847 21.7245C289.561 22.1205 289.154 22.5715 288.626 23.0775C288.12 23.5835 287.57 24.0235 286.976 24.3975C286.404 24.7715 285.854 24.9585 285.326 24.9585Z" fill="black"/>
</svg>
